<?xml version="1.0" encoding="UTF-8" standalone="no"?>
<!DOCTYPE svg PUBLIC "-//W3C//DTD SVG 1.1//EN" "http://www.w3.org/Graphics/SVG/1.1/DTD/svg11.dtd">
<svg width="100%" height="100%" viewBox="0 0 2667 800" version="1.1" xmlns="http://www.w3.org/2000/svg" xmlns:xlink="http://www.w3.org/1999/xlink" xml:space="preserve" xmlns:serif="http://www.serif.com/" style="fill-rule:evenodd;clip-rule:evenodd;stroke-linejoin:round;stroke-miterlimit:2;">
    <g transform="matrix(2.66667,0,0,2.66667,0,0)">
        <g transform="matrix(0.839947,0,0,0.356341,145.999,31.8631)">
            <g>
                <g transform="matrix(1.0431,0,0,2.45874,-199.477,-644.224)">
                    <path d="M307.259,476.064C302.652,477.217 296.575,478.439 289.021,479.733C281.468,481.029 272.727,481.674 262.798,481.674C254.165,481.674 246.897,480.413 240.998,477.9C235.098,475.384 230.35,471.821 226.754,467.215C223.156,462.609 220.566,457.178 218.983,450.919C217.399,444.66 216.61,437.722 216.61,430.091L216.61,367.07L236.682,367.07L236.682,425.774C236.682,439.446 238.84,449.231 243.157,455.128C247.473,461.028 254.738,463.978 264.955,463.978C267.114,463.978 269.342,463.905 271.647,463.759C273.947,463.618 276.104,463.437 278.121,463.22C280.135,463.005 281.968,462.79 283.625,462.574C285.276,462.357 286.463,462.107 287.185,461.82L287.185,367.07L307.258,367.07L307.258,476.064L307.259,476.064Z" style="fill:rgb(233,84,32);fill-rule:nonzero;"/>
                    <path d="M356.25,372.034C358.694,370.453 362.401,368.797 367.365,367.071C372.329,365.343 378.049,364.481 384.524,364.481C392.579,364.481 399.741,365.92 405.999,368.796C412.257,371.676 417.546,375.703 421.862,380.885C426.18,386.063 429.451,392.252 431.682,399.446C433.91,406.642 435.028,414.553 435.028,423.185C435.028,432.251 433.695,440.419 431.035,447.683C428.37,454.95 424.593,461.099 419.702,466.135C414.81,471.173 408.912,475.06 402.004,477.789C395.098,480.521 387.328,481.89 378.694,481.89C369.34,481.89 361.068,481.244 353.874,479.95C346.677,478.655 340.779,477.36 336.176,476.065L336.176,315.269L356.248,311.818L356.248,372.034L356.25,372.034ZM356.25,461.819C358.264,462.396 361.104,462.935 364.775,463.437C368.443,463.942 373.01,464.192 378.481,464.192C389.272,464.192 397.905,460.63 404.381,453.509C410.855,446.387 414.093,436.279 414.093,423.184C414.093,417.434 413.516,412.038 412.366,406.997C411.212,401.962 409.345,397.61 406.755,393.94C404.164,390.27 400.818,387.394 396.719,385.305C392.617,383.222 387.687,382.177 381.934,382.177C376.464,382.177 371.429,383.115 366.826,384.983C362.219,386.855 358.694,388.797 356.25,390.809L356.25,461.819Z" style="fill:rgb(233,84,32);fill-rule:nonzero;"/>
                    <path d="M547.042,476.064C542.436,477.217 536.357,478.439 528.803,479.733C521.249,481.029 512.509,481.674 502.58,481.674C493.945,481.674 486.678,480.413 480.78,477.9C474.879,475.384 470.13,471.821 466.536,467.215C462.937,462.609 460.348,457.178 458.765,450.919C457.182,444.66 456.391,437.722 456.391,430.091L456.391,367.07L476.465,367.07L476.465,425.774C476.465,439.446 478.622,449.231 482.94,455.128C487.256,461.028 494.52,463.978 504.739,463.978C506.895,463.978 509.126,463.905 511.428,463.759C513.727,463.618 515.887,463.437 517.903,463.22C519.917,463.005 521.752,462.79 523.407,462.574C525.059,462.357 526.247,462.107 526.969,461.82L526.969,367.07L547.041,367.07L547.041,476.064L547.042,476.064Z" style="fill:rgb(233,84,32);fill-rule:nonzero;"/>
                    <path d="M575.96,370.308C580.563,369.158 586.675,367.933 594.306,366.637C601.931,365.343 610.71,364.696 620.636,364.696C629.558,364.696 636.966,365.958 642.866,368.472C648.764,370.993 653.477,374.515 657.003,379.048C660.526,383.58 663.011,389.015 664.45,395.344C665.888,401.678 666.61,408.655 666.61,416.281L666.61,479.3L646.536,479.3L646.536,420.595C646.536,413.69 646.067,407.791 645.132,402.897C644.196,398.009 642.653,394.049 640.493,391.029C638.333,388.006 635.456,385.813 631.86,384.445C628.258,383.077 623.799,382.394 618.479,382.394C616.321,382.394 614.086,382.468 611.788,382.61C609.485,382.755 607.29,382.936 605.206,383.15C603.114,383.366 601.245,383.62 599.593,383.906C597.938,384.196 596.749,384.412 596.031,384.552L596.031,479.3L575.961,479.3L575.961,370.308L575.96,370.308Z" style="fill:rgb(233,84,32);fill-rule:nonzero;"/>
                    <path d="M713.011,367.071L755.529,367.071L755.529,383.906L713.011,383.906L713.011,435.702C713.011,441.315 713.439,445.954 714.306,449.623C715.169,453.296 716.462,456.173 718.189,458.257C719.918,460.345 722.074,461.821 724.664,462.682C727.254,463.545 730.275,463.979 733.73,463.979C739.916,463.979 744.81,463.297 748.406,461.928C752,460.562 754.449,459.589 755.744,459.015L760.06,475.419C758.044,476.426 754.482,477.721 749.376,479.3C744.269,480.882 738.478,481.675 732.001,481.675C724.376,481.675 718.081,480.705 713.118,478.762C708.153,476.818 704.159,473.906 701.139,470.023C698.118,466.135 695.993,461.353 694.772,455.669C693.549,449.986 692.936,443.402 692.936,435.92L692.936,335.775L713.01,332.324L713.01,367.071L713.011,367.071Z" style="fill:rgb(233,84,32);fill-rule:nonzero;"/>
                    <path d="M864.737,476.064C860.13,477.217 854.053,478.439 846.499,479.733C838.944,481.029 830.206,481.674 820.278,481.674C811.643,481.674 804.376,480.413 798.477,477.9C792.577,475.384 787.827,471.821 784.229,467.215C780.633,462.609 778.043,457.178 776.459,450.919C774.875,444.66 774.086,437.722 774.086,430.091L774.086,367.07L794.16,367.07L794.16,425.774C794.16,439.446 796.318,449.231 800.633,455.128C804.951,461.028 812.215,463.978 822.434,463.978C824.592,463.978 826.821,463.905 829.125,463.759C831.424,463.618 833.58,463.437 835.598,463.22C837.614,463.005 839.446,462.79 841.104,462.574C842.756,462.357 843.942,462.107 844.663,461.82L844.663,367.07L864.737,367.07L864.737,476.064Z" style="fill:rgb(233,84,32);fill-rule:nonzero;"/>
                </g>
                <g transform="matrix(1.0431,0,0,2.45874,-199.477,-644.224)">
                    <circle cx="928.615" cy="357.135" r="45.325" style="fill:rgb(233,84,32);"/>
                    <path d="M905.093,357.135C905.093,360.354 902.484,362.963 899.263,362.963C896.046,362.963 893.437,360.354 893.437,357.135C893.437,353.917 896.046,351.308 899.263,351.308C902.483,351.308 905.093,353.917 905.093,357.135ZM938.247,385.47C939.856,388.256 943.419,389.211 946.206,387.603C948.993,385.994 949.948,382.43 948.339,379.643C946.73,376.856 943.167,375.902 940.38,377.511C937.593,379.12 936.638,382.684 938.247,385.47ZM948.339,334.628C949.948,331.841 948.995,328.277 946.206,326.67C943.421,325.061 939.856,326.016 938.247,328.802C936.638,331.589 937.593,335.153 940.38,336.761C943.167,338.372 946.731,337.416 948.339,334.628ZM928.616,340.517C937.3,340.517 944.425,347.173 945.169,355.663L953.603,355.531C953.203,349.221 950.466,343.548 946.249,339.364C944.017,340.226 941.427,340.109 939.192,338.818C936.956,337.527 935.559,335.341 935.19,332.973C933.094,332.404 930.889,332.099 928.616,332.099C924.628,332.099 920.858,333.032 917.511,334.691L921.615,342.06C923.741,341.072 926.116,340.517 928.616,340.517ZM911.997,357.135C911.997,351.513 914.79,346.543 919.063,343.536L914.733,336.299C909.717,339.648 905.981,344.758 904.405,350.747C906.27,352.25 907.466,354.552 907.466,357.135C907.466,359.719 906.271,362.021 904.405,363.524C905.981,369.514 909.717,374.624 914.733,377.974L919.063,370.736C914.79,367.729 911.997,362.759 911.997,357.135ZM928.616,373.756C926.116,373.756 923.741,373.201 921.614,372.211L917.51,379.58C920.858,381.24 924.627,382.172 928.615,382.172C930.888,382.172 933.094,381.868 935.189,381.299C935.558,378.93 936.955,376.744 939.191,375.454C941.425,374.163 944.015,374.046 946.248,374.908C950.465,370.722 953.201,365.049 953.602,358.74L945.168,358.608C944.425,367.098 937.3,373.756 928.616,373.756Z" style="fill:white;fill-rule:nonzero;"/>
                </g>
            </g>
        </g>
    </g>
</svg>
