<svg width="26.458mm" height="16.705mm" version="1.1" viewBox="0 0 26.458 16.705" xmlns="http://www.w3.org/2000/svg">
 <g transform="translate(-2.9182 -69.523)">
  <g transform="matrix(.49315 0 0 .49315 1.4791 43.705)">
   <path d="m3.0273 52.453h53.434c0.0056 0 0.01009 0.0045 0.01009 0.01009v33.656c0 0.0056-0.0045 0.01009-0.01009 0.01009h-53.434c-0.00559 0-0.01009-0.0045-0.01009-0.01009v-33.656c0-0.0056 0.0045-0.01009 0.01009-0.01009z" fill="#66ab68" stroke="#66ab68" stroke-linejoin="round" stroke-width=".198" style="paint-order:markers fill stroke"/>
   <g transform="scale(.26458)" fill="#f4f5f2" style="font-feature-settings:normal;font-variant-caps:normal;font-variant-ligatures:normal;font-variant-numeric:normal" aria-label="BIOS">
    <path d="m42.047 285.02v-46.272h15.968q4.544 0 7.744 0.864 3.232 0.864 5.28 2.464 2.08 1.6 3.04 3.872t0.96 5.12q0 1.632-0.48 3.136-0.48 1.472-1.504 2.784-0.992 1.28-2.56 2.336-1.536 1.056-3.68 1.792 9.536 2.144 9.536 10.304 0 2.944-1.12 5.44t-3.264 4.32q-2.144 1.792-5.28 2.816t-7.168 1.024zm8.608-20.288v13.568h8.736q2.4 0 4-0.576 1.632-0.576 2.592-1.536 0.992-0.96 1.408-2.24 0.448-1.28 0.448-2.72 0-1.504-0.48-2.688-0.48-1.216-1.504-2.048-1.024-0.864-2.624-1.312t-3.872-0.448zm0-5.952h6.88q4.384 0 6.656-1.6t2.272-5.088q0-3.616-2.048-5.152t-6.4-1.536h-7.36z" style=""/>
    <path d="m93.493 285.02h-8.64v-46.272h8.64z" style=""/>
    <path d="m148.31 261.89q0 5.088-1.696 9.44-1.696 4.32-4.768 7.488t-7.392 4.96q-4.32 1.76-9.568 1.76t-9.6-1.76q-4.32-1.792-7.424-4.96-3.072-3.168-4.768-7.488-1.696-4.352-1.696-9.44t1.696-9.408q1.696-4.352 4.768-7.52 3.104-3.168 7.424-4.928 4.352-1.792 9.6-1.792t9.568 1.792 7.392 4.96q3.072 3.136 4.768 7.488 1.696 4.32 1.696 9.408zm-8.832 0q0-3.808-1.024-6.816-0.992-3.04-2.88-5.152t-4.608-3.232q-2.688-1.12-6.08-1.12t-6.112 1.12-4.64 3.232q-1.888 2.112-2.912 5.152-1.024 3.008-1.024 6.816t1.024 6.848q1.024 3.008 2.912 5.12 1.92 2.08 4.64 3.2t6.112 1.12 6.08-1.12q2.72-1.12 4.608-3.2 1.888-2.112 2.88-5.12 1.024-3.04 1.024-6.848z" style=""/>
    <path d="m179.85 247.17q-0.352 0.704-0.832 0.992-0.448 0.288-1.088 0.288t-1.44-0.48q-0.8-0.512-1.888-1.12t-2.56-1.088q-1.44-0.512-3.424-0.512-1.792 0-3.136 0.448-1.312 0.416-2.24 1.184-0.896 0.768-1.344 1.856-0.448 1.056-0.448 2.336 0 1.632 0.896 2.72 0.928 1.088 2.432 1.856t3.424 1.376 3.904 1.312q2.016 0.672 3.936 1.6 1.92 0.896 3.424 2.304 1.504 1.376 2.4 3.392 0.928 2.016 0.928 4.896 0 3.136-1.088 5.888-1.056 2.72-3.136 4.768-2.048 2.016-5.024 3.2-2.976 1.152-6.816 1.152-2.208 0-4.352-0.448-2.144-0.416-4.128-1.216-1.952-0.8-3.68-1.92-1.696-1.12-3.04-2.496l2.496-4.128q0.352-0.448 0.832-0.736 0.512-0.32 1.12-0.32 0.8 0 1.728 0.672 0.928 0.64 2.176 1.44 1.28 0.8 2.976 1.472 1.728 0.64 4.128 0.64 3.68 0 5.696-1.728 2.016-1.76 2.016-5.024 0-1.824-0.928-2.976-0.896-1.152-2.4-1.92-1.504-0.8-3.424-1.344t-3.904-1.184-3.904-1.536-3.424-2.336-2.432-3.584q-0.896-2.176-0.896-5.344 0-2.528 0.992-4.928 1.024-2.4 2.944-4.256 1.952-1.856 4.768-2.976t6.432-1.12q4.096 0 7.552 1.28t5.888 3.584z" style=""/>
   </g>
  </g>
 </g>
</svg>
