<?xml version="1.0" encoding="UTF-8"?>
<svg class="h-10" width="272.5" height="40" version="1.1" viewBox="0 0 272.5 40" xmlns="http://www.w3.org/2000/svg">
 <g transform="translate(-110.38 -196.62)">
  <g fill="#fff" stroke="#000" stroke-width=".5" style="font-feature-settings:normal;font-variant-caps:normal;font-variant-ligatures:normal;font-variant-numeric:normal" aria-label="DoK Compare">
   <path d="m138.54 213.02q0 3.5654-1.1588 6.5292-1.1588 2.9415-3.2757 5.0585-2.0947 2.117-5.0585 3.298-2.9415 1.1588-6.5515 1.1588h-12.122v-32.089h12.122q3.61 0 6.5515 1.1811 2.9638 1.1588 5.0585 3.2757 2.117 2.117 3.2757 5.0808 1.1588 2.9415 1.1588 6.5069zm-5.3259 0q0-2.7632-0.75766-4.9693-0.73537-2.2061-2.1393-3.7214-1.3816-1.5153-3.3649-2.3175-1.9833-0.82451-4.4568-0.82451h-6.8858v23.666h6.8858q2.4735 0 4.4568-0.80223 1.9833-0.80222 3.3649-2.3175 1.4039-1.5376 2.1393-3.7214 0.75766-2.2061 0.75766-4.9916z"/>
   <path d="m152.91 205.97q2.5181 0 4.5459 0.82451 2.0501 0.82451 3.4763 2.3398 1.4485 1.5153 2.2284 3.6769t0.77994 4.8579-0.77994 4.8579-2.2284 3.6992q-1.4262 1.5153-3.4763 2.3398-2.0278 0.8245-4.5459 0.8245-2.5404 0-4.5905-0.8245-2.0278-0.82451-3.4763-2.3398-1.4485-1.5376-2.2284-3.6992t-0.77994-4.8579 0.77994-4.8579 2.2284-3.6769 3.4763-2.3398q2.0501-0.82451 4.5905-0.82451zm0 19.677q3.0752 0 4.5682-2.0501 1.5153-2.0724 1.5153-5.9053 0-3.8328-1.5153-5.9053-1.493-2.0947-4.5682-2.0947-3.1198 0-4.6351 2.0947-1.5153 2.0724-1.5153 5.9053 0 3.8328 1.5153 5.9053 1.5153 2.0501 4.6351 2.0501z"/>
   <path d="m173.91 210.7h1.493q0.84679 0 1.3816-0.22284 0.53482-0.24513 0.95822-0.75766l9.7158-11.588q0.51253-0.64623 1.0474-0.89136 0.5571-0.26741 1.3816-0.26741h4.4568l-11.476 13.549q-0.46797 0.57938-0.91365 0.98049-0.42339 0.37883-0.93593 0.62395 0.66852 0.24513 1.2033 0.69081 0.53482 0.42339 1.0474 1.1365l11.9 15.109h-4.5459q-0.49025 0-0.84679-0.0668-0.33426-0.0669-0.60167-0.20055-0.24512-0.13371-0.44568-0.33426-0.17827-0.20056-0.33426-0.44568l-10.028-12.256q-0.22284-0.2897-0.44568-0.49025-0.22284-0.20056-0.53482-0.33426-0.28969-0.13371-0.66852-0.17827-0.37883-0.0669-0.89136-0.0669h-1.9164v14.373h-5.2145v-32.089h5.2145z"/>
   <path d="m232.07 221.91q0.42339 0 0.73537 0.33426l2.0724 2.2507q-1.961 2.3621-4.8133 3.6546-2.8524 1.2702-6.8189 1.2702-3.5209 0-6.3732-1.2033-2.8301-1.2256-4.8356-3.3872-2.0056-2.1838-3.0975-5.1922-1.0696-3.0083-1.0696-6.6184 0-3.61 1.1365-6.6183 1.1588-3.0306 3.2312-5.1922 2.0947-2.1838 4.9916-3.3872 2.9192-1.2033 6.4178-1.2033 3.4763 0 6.1281 1.1365 2.6741 1.1142 4.6351 2.9861l-1.7159 2.429q-0.17827 0.24512-0.4234 0.42339-0.24512 0.17827-0.66852 0.17827-0.44568 0-1.0251-0.40111-0.5571-0.42339-1.4485-0.91364-0.86908-0.51253-2.2061-0.91365-1.3148-0.42339-3.298-0.42339-2.2952 0-4.2117 0.80222-1.9164 0.80223-3.298 2.3398-1.3816 1.5376-2.1615 3.7437-0.75766 2.2061-0.75766 5.0139 0 2.8301 0.80222 5.0585 0.80223 2.2061 2.2061 3.7437 1.4039 1.5153 3.298 2.3175t4.078 0.80222q1.337 0 2.3844-0.1337 1.0696-0.15599 1.961-0.46796 0.89136-0.33426 1.6713-0.82451 0.80223-0.49025 1.5822-1.2033 0.44568-0.40111 0.89136-0.40111z"/>
   <path d="m247.88 205.97q2.5181 0 4.5459 0.82451 2.0501 0.82451 3.4763 2.3398 1.4485 1.5153 2.2284 3.6769t0.77994 4.8579-0.77994 4.8579-2.2284 3.6992q-1.4262 1.5153-3.4763 2.3398-2.0278 0.8245-4.5459 0.8245-2.5404 0-4.5905-0.8245-2.0278-0.82451-3.4763-2.3398-1.4485-1.5376-2.2284-3.6992t-0.77994-4.8579 0.77994-4.8579 2.2284-3.6769 3.4763-2.3398q2.0501-0.82451 4.5905-0.82451zm0 19.677q3.0752 0 4.5682-2.0501 1.5153-2.0724 1.5153-5.9053 0-3.8328-1.5153-5.9053-1.493-2.0947-4.5682-2.0947-3.1198 0-4.6351 2.0947-1.5153 2.0724-1.5153 5.9053 0 3.8328 1.5153 5.9053 1.5153 2.0501 4.6351 2.0501z"/>
   <path d="m263.47 229.06v-22.73h2.8969q0.98049 0 1.2479 0.91365l0.31198 1.9833q0.62395-0.71308 1.2925-1.2925 0.66852-0.60167 1.4262-1.0251 0.77994-0.44568 1.649-0.69081 0.89136-0.24512 1.9164-0.24512 1.0919 0 2.0056 0.31198 0.91364 0.31197 1.6044 0.89136 0.71309 0.57938 1.2256 1.4039 0.51254 0.82451 0.8468 1.8496 0.51253-1.181 1.2925-2.0278 0.77994-0.8468 1.7382-1.3816 0.95821-0.53482 2.0278-0.77994 1.0919-0.26741 2.2061-0.26741 1.8273 0 3.2535 0.57938 1.4485 0.57939 2.429 1.6936 1.0028 1.0919 1.5153 2.6964t0.51253 3.6546v14.462h-4.7911v-14.462q0-2.4067-1.0473-3.61-1.0251-1.2256-3.0529-1.2256-0.91365 0-1.7159 0.31198-0.80222 0.31197-1.4039 0.91364t-0.95821 1.5153q-0.33426 0.89136-0.33426 2.0947v14.462h-4.7911v-14.462q0-2.4958-1.0028-3.6546-1.0028-1.181-2.9415-1.181-1.337 0-2.4735 0.6908-1.1365 0.66852-2.0947 1.8496v16.758z"/>
   <path d="m305.26 223.36q1.0028 1.2925 2.1838 1.8273 1.2033 0.51253 2.6518 0.51253 2.8078 0 4.3677-2.0501 1.5822-2.0501 1.5822-6.1058 0-2.0947-0.35654-3.5654-0.35655-1.493-1.0251-2.429t-1.6267-1.3593q-0.95821-0.4234-2.1616-0.4234-1.8273 0-3.1643 0.80222-1.3148 0.77994-2.4512 2.2507zm-0.24513-13.727q1.4262-1.6713 3.2312-2.6964 1.8273-1.0251 4.234-1.0251 1.9164 0 3.4763 0.77994 1.5599 0.75765 2.6741 2.2284 1.1142 1.4707 1.7159 3.6546 0.62396 2.1616 0.62396 4.9693 0 2.5181-0.69081 4.7019-0.66852 2.1616-1.9387 3.766-1.2702 1.5822-3.0752 2.4958-1.805 0.89136-4.078 0.89136-2.0056 0-3.4094-0.64623-1.3816-0.64624-2.5181-1.7827v9.649h-4.7911v-30.284h2.8969q0.98049 0 1.2479 0.91365z"/>
   <path d="m337.77 219.12q-2.5627 0.0891-4.3231 0.4234-1.7604 0.31197-2.8524 0.8245-1.0919 0.49025-1.5822 1.1811-0.46796 0.6908-0.46796 1.5153 0 0.80222 0.24512 1.3816 0.26741 0.5571 0.71309 0.93592 0.46797 0.35655 1.0696 0.53482 0.62396 0.15599 1.3593 0.15599 1.8718 0 3.2089-0.69081 1.3593-0.71308 2.6295-2.0501zm-12.702-9.6267q3.8551-3.5877 9.181-3.5877 1.961 0 3.4763 0.64623 1.5376 0.62396 2.5627 1.7827 1.0474 1.1588 1.5822 2.7632 0.5571 1.5822 0.5571 3.5209v14.44h-2.1393q-0.69081 0-1.0474-0.20055-0.35654-0.22284-0.60167-0.86908l-0.46796-1.8496q-0.86908 0.77994-1.7159 1.4039-0.84679 0.60167-1.7604 1.0251-0.89136 0.42339-1.9387 0.62395-1.0251 0.22284-2.273 0.22284-1.3816 0-2.585-0.37883-1.181-0.37883-2.0501-1.1365-0.86908-0.77994-1.3816-1.9164-0.49025-1.1365-0.49025-2.6741 0-1.3148 0.6908-2.5627 0.71309-1.2479 2.3175-2.2284 1.6267-1.0028 4.2562-1.649 2.6518-0.64624 6.5292-0.73538v-1.5153q0-2.4512-1.0474-3.6546-1.0474-1.2033-3.0752-1.2033-1.3816 0-2.3175 0.35654-0.93593 0.33426-1.6267 0.73538-0.69081 0.40111-1.2256 0.75765-0.53482 0.33426-1.1365 0.33426-0.49024 0-0.84679-0.24512-0.33426-0.26741-0.5571-0.64624z"/>
   <path d="m352.52 210.54q1.0696-2.1616 2.5849-3.3872 1.5153-1.2479 3.6323-1.2479 0.73537 0 1.3816 0.17827 0.64624 0.15599 1.1588 0.49025l-0.33426 3.61q-0.0891 0.37882-0.28969 0.53481-0.17828 0.13371-0.49025 0.13371-0.33426 0-0.95821-0.11142-0.62396-0.13371-1.3148-0.13371-1.0028 0-1.7827 0.28969-0.75766 0.2897-1.3816 0.8468-0.60167 0.5571-1.0696 1.3593t-0.86908 1.8273v14.128h-4.7911v-22.73h2.7855q0.75766 0 1.0474 0.2897 0.28969 0.2674 0.40111 0.95821z"/>
   <path d="m378.57 215.13q0-1.2033-0.35654-2.2284-0.33426-1.0473-1.0028-1.805-0.66852-0.77994-1.6713-1.2033-0.9805-0.44568-2.273-0.44568-2.6072 0-4.1003 1.493-1.493 1.493-1.8941 4.1894zm-11.432 2.9415q0.0891 1.9387 0.60167 3.3649 0.51253 1.4039 1.3593 2.3398 0.86908 0.93592 2.0501 1.4039 1.2033 0.44568 2.6741 0.44568 1.4039 0 2.429-0.31198 1.0251-0.33426 1.7827-0.71309 0.75765-0.40111 1.2925-0.71308 0.53481-0.33426 0.98049-0.33426 0.57939 0 0.89136 0.44568l1.3593 1.7604q-0.84679 1.0028-1.9164 1.6936-1.0696 0.6908-2.273 1.1365-1.2033 0.4234-2.4735 0.60167-1.2702 0.20055-2.4735 0.20055-2.3621 0-4.39-0.77994-2.0056-0.80222-3.4986-2.3398-1.4707-1.5376-2.3175-3.8106-0.82451-2.273-0.82451-5.2367 0-2.3621 0.73537-4.4122 0.75766-2.0501 2.1393-3.5654 1.4039-1.5153 3.3872-2.3844 2.0056-0.89136 4.5236-0.89136 2.0947 0 3.8774 0.6908 1.7827 0.66852 3.0752 1.9833t2.0056 3.2312q0.73537 1.8941 0.73537 4.3231 0 1.1142-0.24512 1.493-0.24512 0.37883-0.89136 0.37883z"/>
  </g>
 </g>
</svg>
