<?xml version="1.0" encoding="UTF-8" standalone="no"?><!DOCTYPE svg PUBLIC "-//W3C//DTD SVG 1.1//EN" "http://www.w3.org/Graphics/SVG/1.1/DTD/svg11.dtd"><svg width="100%" height="100%" viewBox="0 0 92 45" version="1.1" xmlns="http://www.w3.org/2000/svg" xmlns:xlink="http://www.w3.org/1999/xlink" xml:space="preserve" xmlns:serif="http://www.serif.com/" style="fill-rule:evenodd;clip-rule:evenodd;stroke-linejoin:round;stroke-miterlimit:2;"><path d="M10.2,19.6l-3.65,4.8l0,10.5l-6.55,-0l0,-34.9l6.55,-0l0,15.7l0.3,-0l4.05,-5.8l7.35,-9.9l7.4,-0l-10.95,14.7l11.45,20.2l-7.4,-0l-8.55,-15.3Z" style="fill-rule:nonzero;"/><path d="M73.608,34.9l-6.55,-0l-0,-34.9l13.25,-0c3.4,-0 6,0.967 7.8,2.9c1.8,1.933 2.7,4.567 2.7,7.9c-0,2.567 -0.592,4.725 -1.775,6.475c-1.183,1.75 -2.875,2.858 -5.075,3.325l7.45,14.3l-7.2,-0l-6.65,-13.55l-3.95,-0l-0,13.55Zm5.35,-18.65c1.767,-0 3.033,-0.36 3.8,-1.08c0.767,-0.72 1.15,-1.867 1.15,-3.44l-0,-1.91c-0,-1.573 -0.383,-2.72 -1.15,-3.44c-0.767,-0.72 -2.033,-1.08 -3.8,-1.08l-5.35,-0l-0,10.95l5.35,-0Z" style="fill-rule:nonzero;"/><rect x="32.704" y="38.85" width="24" height="5.3" style="fill-rule:nonzero;"/></svg>