<?xml version="1.0" encoding="UTF-8" standalone="no"?>
<svg
   xmlns:dc="http://purl.org/dc/elements/1.1/"
   xmlns:cc="http://creativecommons.org/ns#"
   xmlns:rdf="http://www.w3.org/1999/02/22-rdf-syntax-ns#"
   xmlns:svg="http://www.w3.org/2000/svg"
   xmlns="http://www.w3.org/2000/svg"
   xmlns:sodipodi="http://sodipodi.sourceforge.net/DTD/sodipodi-0.dtd"
   xmlns:inkscape="http://www.inkscape.org/namespaces/inkscape"
   id="svg"
   width="385.02"
   height="258.94"
   version="1.1"
   viewBox="0 0 385.02 258.94"
   sodipodi:docname="baserunner.svg"
   inkscape:version="0.92.4 (33fec40, 2019-01-16)">
  <metadata
     id="metadata12">
    <rdf:RDF>
      <cc:Work
         rdf:about="">
        <dc:format>image/svg+xml</dc:format>
        <dc:type
           rdf:resource="http://purl.org/dc/dcmitype/StillImage" />
      </cc:Work>
    </rdf:RDF>
  </metadata>
  <defs
     id="defs10" />
  <sodipodi:namedview
     pagecolor="#ffffff"
     bordercolor="#666666"
     borderopacity="1"
     objecttolerance="10"
     gridtolerance="10"
     guidetolerance="10"
     inkscape:pageopacity="0"
     inkscape:pageshadow="2"
     inkscape:window-width="1280"
     inkscape:window-height="1024"
     id="namedview8"
     showgrid="false"
     inkscape:zoom="0.91140804"
     inkscape:cx="15.860247"
     inkscape:cy="129.47"
     inkscape:window-x="1185"
     inkscape:window-y="88"
     inkscape:window-maximized="0"
     inkscape:current-layer="svg" />
  <rect
     style="fill:#ffffff;fill-opacity:1;stroke:none;stroke-opacity:1"
     id="rect4530"
     width="471.79745"
     height="335.74423"
     x="-36.207714"
     y="-39.499321" />
  <g
     id="svgg"
     transform="translate(20099 -7.2924)"
     fill="#fff"
     stroke="#000"
     style="fill-opacity:1;fill:#000000;stroke:#f1a541;stroke-opacity:1">
    <g
       transform="translate(-20099 -14.64)"
       fill="#fff"
       stroke="#000"
       id="g4"
       style="fill-opacity:1;fill:#000000;stroke:#f1a541;stroke-opacity:1">
      <path
         d="m266.34 26.489c-0.454 2.562-0.978 5.478-1.165 6.48s-0.425 2.395-0.528 3.097c-0.104 0.701-0.337 1.766-0.52 2.368-0.182 0.601-0.42 1.748-0.529 2.55-0.246 1.805-0.553 3.459-0.783 4.227-0.097 0.321-0.407 1.879-0.69 3.461-0.282 1.582-1.767 9.434-3.298 17.448-3.354 17.546-2.937 15.322-3.648 19.49-1.08 6.339-1.24 6.867-2.113 6.991-0.717 0.102-0.817 0.397-1.03 3.019-0.194 2.394-0.37 2.995-1.002 3.414-1.33 0.883-0.918 1.441 1.265 1.714 2.421 0.302 3.261-0.185 1.88-1.09-1.013-0.663-0.804-3.329 0.364-4.654 0.343-0.389 0.477-1.008 0.355-1.64-0.109-0.563 0.701-5.475 1.82-11.032 1.108-5.511 2.149-10.756 2.313-11.658s1.14-6.066 2.168-11.475c1.029-5.41 2.008-10.656 2.176-11.658 0.245-1.463 1.589-8.314 2.358-12.022 1.276-6.154 1.649-8.056 2.016-10.286 0.527-3.2 0.528-3.168-0.088-3.297-0.366-0.077-0.712 1.114-1.321 4.553m-11.084 2.18c-0.19 0.308-0.751 3.172-2.274 11.586-0.507 2.805-1.15 6.33-1.428 7.832-0.278 1.503-1.094 5.929-1.812 9.836-0.718 3.908-1.379 7.35-1.469 7.651-0.091 0.3-0.257 1.12-0.369 1.821-0.113 0.702-0.375 2.177-0.583 3.279-0.207 1.102-0.453 2.413-0.546 2.914s-0.418 2.059-0.722 3.461c-0.303 1.403-0.604 2.96-0.667 3.461s-0.224 1.485-0.358 2.186-0.303 1.767-0.374 2.368c-0.167 1.4-0.568 2.368-0.982 2.368-0.467 0-0.402 1.599 0.084 2.085 0.467 0.467 0.111 3.743-0.407 3.743-0.327 0-0.799-1.141-0.7-1.692 0.174-0.975-0.159-1.485-1.215-1.86-1.824-0.647-5.048-0.981-5.32-0.55-0.129 0.204-1.629 1.058-3.332 1.895-3.945 1.941-3.831 1.78-2.7 3.803 1.107 1.98 1.612 2.025 0.68 0.06-0.568-1.196-0.524-1.786 0.138-1.867 1.04-0.128 2.248-0.669 2.254-1.012 5e-3 -0.229 0.258 0.076 0.563 0.677 0.915 1.807 2.471 3.5 2.224 2.421-0.217-0.946-3e-3 -0.806 2.021 1.316 0.588 0.616 0.858 0.707 1.075 0.364 0.23-0.362 0.292-0.358 0.297 0.019 3e-3 0.262 0.169 0.375 0.37 0.252 0.2-0.124 0.364 0.049 0.364 0.385 0 0.431 0.214 0.554 0.728 0.42 0.401-0.105 0.729-0.053 0.729 0.115 0 0.374 0.747 0.603 3.006 0.922 1.76 0.248 2.472-0.283 1.003-0.749-1.179-0.374-0.107-7.833 1.126-7.833 0.941 0 1.555-1.258 1.062-2.178-0.285-0.532-0.202-1.649 0.317-4.28 0.387-1.958 0.827-4.216 0.978-5.017 0.151-0.802 0.316-1.621 0.366-1.822 0.17-0.683 2.368-12.009 3.11-16.029 0.407-2.204 0.986-5.28 1.286-6.837 0.301-1.556 0.624-3.277 0.719-3.825 0.392-2.27 2.029-10.964 2.383-12.653 1.891-9.042 1.925-9.29 1.25-9.29-0.549 0-0.924 1.398-1.845 6.875-0.291 1.729-0.615 3.553-0.72 4.054s-0.277 1.321-0.382 1.822-0.604 3.124-1.109 5.829c-0.504 2.704-1.74 9.262-2.746 14.571-1.006 5.31-2.066 10.966-2.355 12.569s-0.856 4.635-1.26 6.739c-0.403 2.104-0.806 4.28-0.895 4.836-0.209 1.308-0.48 1.722-1.126 1.722-0.624 0-0.634-0.152-0.157-2.432 0.793-3.791 5.884-30.301 7.473-38.916 0.924-5.009 1.822-9.681 1.996-10.383 0.312-1.259 1.211-6.577 1.169-6.912-0.041-0.323-0.738-0.414-0.918-0.12m-133.93 20.473c-0.203 0.38-0.479 1.621-0.613 2.758-0.219 1.869-0.316 2.05-1.009 1.878-2.05-0.511-3.771-0.614-4.645-0.278-0.699 0.268-1.502 0.227-2.915-0.149-3.196-0.851-3.736-0.734-5.277 1.147-1.194 1.457-1.295 1.719-0.776 2.009 0.329 0.184 1.109 0.846 1.734 1.471 1.35 1.351 5.532 2.468 6.434 1.72 0.766-0.636 0.873-0.237 0.169 0.631-0.723 0.892-1.051 0.875-13.341-0.707-4.007-0.516-8.761-1.116-10.565-1.334-1.803-0.217-3.811-0.48-4.462-0.584-1.129-0.18-1.615 0.275-0.82 0.766 0.843 0.521 0.325 2.054-1.2 3.558-0.861 0.848-2.9 3.023-4.532 4.832l-2.967 3.29-0.226 7.275c-0.18 5.771-0.121 7.561 0.284 8.661 0.378 1.028 0.427 1.913 0.189 3.428-0.334 2.133-0.204 2.5 0.958 2.709 0.412 0.075 0.818 0.562 0.984 1.181l0.282 1.053-2.697-0.228c-2.962-0.25-3.094-0.176-3.167 1.77-0.077 2.034 1.465 3.368 4.448 3.848 2.599 0.419 2.889 0.67 2.914 2.521 9e-3 0.701 0.255 2.914 0.545 4.918 0.812 5.604 0.746 7.246-0.278 6.961-1.978-0.549-7.287-1.343-7.503-1.122-0.131 0.134 0.309 0.701 0.977 1.262l1.215 1.018-0.593 2.313c-0.723 2.822-1.108 3.287-1.848 2.231-0.412-0.589-0.834-0.751-1.675-0.644-1.308 0.165-1.87 0.549-0.805 0.549 0.829 0 3.218 3.057 2.852 3.648-0.126 0.204-0.416 0.256-0.644 0.115-0.809-0.5-2.085-0.447-2.085 0.087 0 0.287-0.26 0.522-0.577 0.522s-0.517-0.179-0.444-0.398c0.383-1.148-2.246-2.94-5.018-3.421-1.513-0.263-2.793-0.535-2.845-0.606-2.033-2.757-1.986-2.862 1.386-3.133 1.671-0.134 2.566-0.024 3.423 0.419 1.46 0.755 1.503 0.206 0.078-0.993-0.867-0.73-1.647-0.961-3.916-1.159-2.763-0.24-5.566-0.798-4.473-0.89 0.35-0.029 0.219-0.233-0.365-0.566-0.867-0.496-0.806-0.522 1.276-0.545 2.002-0.023 2.126-0.069 1.478-0.559-0.389-0.295-1.372-0.538-2.186-0.541-0.813-3e-3 -1.724-0.18-2.025-0.394-0.393-0.28 0.509-0.328 3.229-0.172 3.506 0.201 3.756 0.171 3.516-0.426-0.142-0.353-0.484-1.387-0.761-2.297-0.799-2.63-2.706-4.582-4.947-5.062-2.076-0.445-2.067-0.448-2.227 0.546-0.31 1.926-0.833 2.185-3.177 1.576-0.355-0.092-0.665 0.27-0.895 1.043-0.194 0.652-0.494 1.184-0.666 1.184-0.173 0-0.21 0.327-0.084 0.726 0.299 0.94-0.147 1.735-0.585 1.044-0.216-0.341-0.318-0.156-0.33 0.598-0.014 0.937-0.071 1-0.397 0.44-0.25-0.43-0.621-0.577-1.082-0.431-0.393 0.125-0.701 0.052-0.701-0.166 0-0.214 0.191-0.389 0.425-0.389 0.926 0-0.148-0.504-1.251-0.588-2.332-0.175-3.093 0.151-2.896 1.243 0.098 0.541 0.043 0.857-0.124 0.702-0.166-0.156-0.356-0.638-0.422-1.071-0.16-1.048-0.221-1.083-1.229-0.71l-0.866 0.321 0.819 0.26c0.45 0.143 0.723 0.414 0.606 0.604-0.117 0.189-0.346 0.261-0.509 0.16-0.163-0.1-0.916-0.281-1.672-0.401-1.335-0.213-2.516-0.964-2.126-1.354 0.106-0.106-0.148-0.3-0.564-0.432-0.884-0.281-0.957-0.663-0.242-1.257 0.98-0.813 2.874-0.837 4.379-0.054 1.87 0.972 2.001 0.747 0.512-0.876-1.137-1.24-1.4-1.343-4.084-1.599-4.693-0.448-5.107-2.111-0.581-2.332 2.281-0.111 1.979-0.483-0.644-0.795-3.379-0.401-4.831-0.87-4.595-1.485 0.167-0.436-0.208-0.536-2.002-0.536-2.187 0-4.063 0.541-4.063 1.172 0 0.18 0.163 0.226 0.364 0.103 0.2-0.124 0.364-0.033 0.364 0.203 0 0.249-0.305 0.348-0.728 0.237-0.458-0.119-0.729-0.011-0.729 0.292 0 0.265-0.124 0.537-0.276 0.603-2.315 1.019-8.958 14.116-10.687 21.069-4.351 17.501-4.533 34.436-0.499 46.454 1.327 3.953 1.274 4.207-0.833 4.012-0.952-0.089-3.78-0.333-6.284-0.544-2.505-0.21-5.087-0.47-5.738-0.578l-1.184-0.197 6e-3 22.33c3e-3 12.281 0.15 22.558 0.327 22.838 0.351 0.554 0.696 0.695 7.135 2.919 2.404 0.831 4.656 1.67 5.004 1.865s0.82 0.355 1.048 0.355c1.301 0 4.677 1.956 4.637 2.687-0.04 0.725 0.816 3.085 3.32 9.152 1.066 2.582 1.325 3.636 1.703 6.922 0.271 2.351-0.143 2.728-4.419 4.015-6.766 2.037-15.629 7.886-17.521 11.564-1.251 2.431-1.667 8.965-0.719 11.287 1.655 4.054 4.523 8.021 6.67 9.229 0.954 0.536 2.661 1.528 3.793 2.203l2.058 1.228h114.24c91.154 0 114.24-0.092 114.24-0.455-2e-3 -0.251-0.317-0.932-0.7-1.514-0.631-0.957-0.646-1.137-0.153-1.889 0.347-0.53 0.524-1.598 0.488-2.949-0.093-3.474-0.139-3.362 1.491-3.622 0.819-0.131 1.566-0.439 1.66-0.684 0.157-0.409-7.25-8.136-10.633-11.093-1.984-1.734-0.671-1.978 2.51-0.467 1.233 0.586 3 1.167 3.927 1.291 2.568 0.345 3.682 0.961 3.445 1.904-0.444 1.77 1.11 2.446 6.17 2.686 2.516 0.119 4.692 0.386 4.834 0.593 0.616 0.892 4.194 3.159 7.556 4.787 16.395 7.937 29.675 10.749 46.683 9.883 5.794-0.295 12.132-0.241 16.114 0.137 0.758 0.072 1.301-0.06 1.396-0.338 0.103-0.299-0.073-0.384-0.511-0.246-0.53 0.166-0.555 0.139-0.122-0.133 0.301-0.189 2.022-0.444 3.825-0.566 1.803-0.123 4.918-0.485 6.922-0.803 2.004-0.319 4.872-0.723 6.375-0.897 8.978-1.042 15.649-4.835 13.775-7.831-0.126-0.202-0.343-0.97-0.481-1.707s-0.563-1.622-0.944-1.966c-0.381-0.345-0.692-0.921-0.692-1.281s-0.286-0.814-0.635-1.009c-0.911-0.51-0.564-0.685 2.239-1.133 5.084-0.812 14.252-7.584 17.269-12.756 0.526-0.902 1.618-2.546 2.428-3.653 0.809-1.108 1.938-3.157 2.507-4.554 0.57-1.397 1.348-3.196 1.729-3.997 2.121-4.465 2.884-8.027 1.876-8.767-0.589-0.433-0.567-0.495 0.287-0.821 0.818-0.313 0.995-0.727 1.536-3.579 1.212-6.396 1.21-6.664-0.069-6.919-0.614-0.123-1.116-0.339-1.116-0.48s-0.287-0.256-0.638-0.254c-1.658 7e-3 -2.641-0.154-2.641-0.434 0-0.169 0.615-0.202 1.366-0.074 0.751 0.129 1.963 0.088 2.692-0.091l1.326-0.325 0.255-3.06c0.389-4.669 0.081-5.873-1.633-6.387-1.69-0.506-1.592-1.414 0.153-1.414h1.167l-0.301-2.805c-0.598-5.581-1.332-6.688-5.007-7.545-1.181-0.276-2.313-0.603-2.515-0.728s-0.47-0.06-0.596 0.143c-0.379 0.614-0.914 0.417-0.914-0.336 0-0.996 0.366-1.119 2.144-0.719 4.716 1.059 6.096 0 3.562-2.734-0.534-0.576-0.987-1.392-1.007-1.813-0.032-0.68-0.069-0.663-0.328 0.144-0.194 0.607-0.304 0.698-0.328 0.273-0.02-0.351-0.208-0.637-0.418-0.637-0.687 0-2.147-1.973-1.68-2.27 0.254-0.162 0.096-0.272-0.397-0.275-0.451-3e-3 -0.822-0.21-0.825-0.461-4e-3 -0.304-0.124-0.273-0.359 0.091s-0.355 0.395-0.359 0.091c-3e-3 -0.25-0.313-0.455-0.689-0.455-0.377 0-0.955-0.369-1.286-0.82l-0.601-0.819 0.217 0.819c0.375 1.417-0.509 0.894-0.945-0.559-0.262-0.875-0.795-1.599-1.458-1.979-0.575-0.331-1.152-1.021-1.281-1.536-0.16-0.637-0.483-0.937-1.015-0.941-0.637-4e-3 -0.68-0.07-0.233-0.358 0.522-0.338 0.477-0.398-0.378-0.501-0.208-0.025-0.494-0.21-0.637-0.41-0.348-0.488-2.628-1.289-2.628-0.924 0 0.159 0.227 0.477 0.506 0.708 0.278 0.231 0.699 1.194 0.934 2.14 0.236 0.945 0.668 2.088 0.96 2.539 0.456 0.704 0.458 0.819 0.012 0.819-0.589 0-1.409-1.877-1.465-3.351-0.041-1.116-0.408-1.559-1.585-1.915-0.903-0.272-1.15 0.326-0.273 0.662 0.301 0.116 0.546 0.387 0.546 0.603s-0.402 0.098-0.895-0.262c-0.593-0.434-0.827-0.88-0.694-1.323 0.195-0.648 0.17-0.648-0.821 0-0.57 0.372-0.893 0.458-0.73 0.194 0.317-0.514-1.298-2.267-2.07-2.246-0.24 6e-3 -0.118 0.252 0.271 0.546 0.686 0.519 0.681 0.535-0.155 0.535-0.83 0-0.814 0.051 0.431 1.366 3.774 3.985 5.115 5.59 4.872 5.833-0.148 0.148-0.762-0.305-1.365-1.006-0.602-0.701-1.982-2.288-3.066-3.527-1.084-1.238-1.971-2.59-1.971-3.005 0-0.637-0.226-0.754-1.457-0.754-1.095 0-1.457 0.145-1.457 0.586 0 0.37 0.2 0.508 0.546 0.375 0.367-0.14 0.547 0.017 0.547 0.477 0 0.378 0.205 0.76 0.455 0.85 1.129 0.403-0.216 0.634-2.394 0.411-2.153-0.221-2.43-0.342-2.735-1.199-0.187-0.524-0.693-1.354-1.124-1.843-1.241-1.409 0.11-1.881 2.701-0.944 0.584 0.211 0.621 0.185 0.182-0.13-0.941-0.677 0.611-0.499 1.664 0.191 1.336 0.875 1.418 0.416 0.161-0.899-0.603-0.631-1.096-1.387-1.096-1.68 0-0.614-1.051-0.822-5.35-1.059-2.793-0.154-3.057-0.24-4.149-1.357l-1.167-1.194 0.87-0.33c0.479-0.181 1.75-0.26 2.826-0.175l1.954 0.155-0.861-0.682c-0.635-0.502-1.224-0.63-2.229-0.485-0.751 0.109-1.366 0.051-1.366-0.129 0-0.179-1.106-0.439-2.459-0.577-1.352-0.138-3.196-0.608-4.098-1.044l-1.639-0.793 2.187-0.182c1.882-0.157 2.188-0.284 2.186-0.908-1.842-0.699 0.14566-0.2403-1.842-0.699-0.402-0.401-1.047-0.52-2.227-0.409-2.242 0.21-2.47 0.558-0.365 0.558 1.017 0 1.7 0.165 1.7 0.41 0 0.292-0.922 0.339-3.188 0.163-7.37-0.571-8.72-0.596-10.291-0.19-0.902 0.233-1.931 0.501-2.287 0.595-0.566 0.149-0.628-0.038-0.491-1.496 0.132-1.414 0.057-1.667-0.492-1.667-0.864 0-1.603-0.939-1.32-1.676 0.162-0.423 0.543-0.545 1.334-0.429 1.006 0.147 1.097 0.078 0.997-0.764-0.098-0.832-0.289-0.937-1.903-1.041-2.62-0.168-6.858-1.113-7.157-1.596-0.141-0.229-0.432-0.308-0.647-0.176-0.214 0.132-5.116-2.874-10.893-6.681-10.019-6.603-10.6-6.93-12.584-7.094-1.996-0.165-2.08-0.137-2.08 0.696 0 0.477-0.164 0.968-0.364 1.092-0.798 0.493 0.729 1.582 1.885 1.344 0.284-0.059 7.934 7.641 8.375 8.431 0.737 1.315-0.789 1.2-21.736-1.642-15.727-2.134-21.296-2.769-21.781-2.482-0.359 0.211-0.799 0.294-0.979 0.183-1.608-0.994-14.216-4.018-14.216-3.41 0 0.17-0.246 0.308-0.546 0.308-0.639 0-0.723-0.771-0.147-1.347 0.291-0.291 0.085-0.47-0.754-0.654-0.635-0.14-1.253-0.156-1.372-0.037s0.056 0.217 0.39 0.217 0.608 0.164 0.608 0.364c0 0.494-0.489 0.459-1.02-0.073-1.058-1.057-0.183-2.352 1.131-1.676 0.362 0.187 0.853 0.26 1.093 0.162s0.155-0.19-0.191-0.206c-0.381-0.017-0.55-0.228-0.431-0.538 0.108-0.28 0.023-0.617-0.189-0.748-0.234-0.144-0.3-0.016-0.168 0.328 0.119 0.311 0.035 0.565-0.186 0.565-0.222 0-0.404-0.173-0.404-0.385 0-0.213-0.157-0.289-0.35-0.17-0.376 0.233-0.239-3.887 0.151-4.518 0.123-0.197 0.453-0.271 0.734-0.163 0.368 0.141 0.503-0.093 0.484-0.836-0.048-1.8 0.458-3.399 1.075-3.399 0.318 0 0.471-0.107 0.34-0.238s-0.732-0.224-1.336-0.207-1.098-0.097-1.098-0.255c0-0.291-4.052-0.998-11.657-2.035-5.851-0.798-5.65-0.769-12.885-1.886-6.336-0.979-6.531-1.035-7.322-2.109-0.447-0.606-2.17-2.947-3.83-5.201-2.592-3.521-3.22-4.159-4.459-4.53-1.342-0.402-1.431-0.513-1.303-1.614 0.076-0.65 0.033-1.117-0.096-1.038-0.302 0.187-1.255-2.683-0.981-2.956 0.187-0.187 1.354 0.351 2.825 1.302 2.194 1.418 7.133 4.005 7.611 3.986 0.431-0.017 0.391-0.102-0.15-0.322-0.404-0.164-2.922-1.752-5.595-3.528-2.673-1.777-5.17-3.393-5.549-3.591-0.379-0.197-0.689-0.615-0.689-0.929 0-0.313-0.194-0.763-0.431-1s-0.333-0.529-0.212-0.65c0.253-0.253 1.561 0.973 1.823 1.709 0.098 0.276 0.297 0.391 0.443 0.256 0.349-0.324-0.114-1.758-0.567-1.758-0.318 0-1.181-0.873-6.106-6.177-1.461-1.574-1.932-1.532-1.102 0.099 0.223 0.437-0.94-0.641-2.584-2.397-1.644-1.755-3.712-3.615-4.595-4.133-0.883-0.517-1.605-1.027-1.605-1.134 0-0.368 2.333 0.276 2.617 0.724 0.19 0.298 0.288 0.311 0.292 0.039 9e-3 -0.688-0.9-1.215-2.268-1.316-0.714-0.052-1.233-0.201-1.154-0.331 0.08-0.13-0.469-0.544-1.219-0.922-0.751-0.377-1.774-0.945-2.275-1.263s-2.469-0.866-4.372-1.217-3.691-0.824-3.972-1.05c-0.281-0.227-0.568-0.371-0.638-0.321-0.351 0.254-0.868 0.043-0.671-0.275 0.124-0.201 0.625-0.265 1.114-0.142 0.981 0.246 1.071 0.074 0.511-0.973-0.234-0.437-0.243-0.705-0.024-0.705 0.434 0 0.888 1.328 0.609 1.781-0.172 0.277 2.692 0.782 7.174 1.265 1.138 0.122 1.114-0.314-0.147-2.676-0.762-1.428-0.863-2.191-0.292-2.191 0.213 0 0.293-0.152 0.178-0.337-0.114-0.185 0.081-0.402 0.434-0.482 0.353-0.079-0.055-0.136-0.906-0.125-0.852 0.011-1.548 0.166-1.548 0.345 0 0.178-0.205 0.163-0.456-0.033-0.707-0.553-2.07-0.795-2.309-0.409-0.13 0.211-0.416 0.18-0.729-0.079-0.393-0.326-0.514-0.326-0.514 4e-3 0 0.236-0.166 0.327-0.37 0.201s-0.287-0.364-0.184-0.53c0.102-0.165-0.057-0.394-0.354-0.508-0.48-0.184-0.56 0.573-0.169 1.588 0.039 0.1 0.05 0.31 0.024 0.466-0.059 0.359 0.448 0.516 2.601 0.804 0.952 0.128 1.731 0.366 1.731 0.529 0 1.003-5.095-0.425-5.378-1.507-0.114-0.436-0.643-1.657-1.176-2.713-1.004-1.992-0.826-2.575 0.634-2.072 0.521 0.179 0.504 0.111-0.091-0.375-0.816-0.667 1.924-0.502 3.097 0.186 0.363 0.213 0.18 0.256-0.547 0.128-0.877-0.155-0.949-0.125-0.364 0.152 1.059 0.5 2.1 0.482 1.783-0.031-0.18-0.291-0.061-0.349 0.373-0.182 0.349 0.134 0.745 0.251 0.879 0.26s-0.248 0.242-0.849 0.518l-1.093 0.5 1.543-0.03c1.245-0.025 1.465-0.125 1.139-0.517-0.497-0.6-0.648-0.604 2.963 0.081 1.647 0.312 3.086 0.476 3.198 0.364s0-0.204-0.248-0.204-0.674-0.223-0.947-0.496-1.32-0.606-2.327-0.739c-2.061-0.274-2.434-0.608-1.865-1.672 0.723-1.349 5.161-0.632 5.007 0.809-0.072 0.674 0.201 0.851 1.919 1.241 2.377 0.54 2.467 0.476 2.617-1.875 0.063-1.002 0.231-1.909 0.373-2.015 0.141-0.107-0.242-0.728-0.852-1.381l-1.109-1.187-1.131 0.66c-0.684 0.4-1.244 1.098-1.417 1.767l-0.287 1.107-2.558-0.347c-2.567-0.347-3.384-1.025-1.829-1.518 0.742-0.236 1.019-0.911 0.374-0.911-0.564 0-1.632-2.232-1.831-3.825-0.233-1.865-0.664-1.791-1.909 0.328l-1.002 1.707 1.546 0.687 1.547 0.687-1.457 0.023c-1.331 0.021-4.688-0.407-7.195-0.918-0.551-0.112-1.002-0.048-1.002 0.142 0 0.276 2.386 0.739 4.918 0.956 1.596 0.136 0.099 1.117-1.639 1.075l-2.004-0.05 1.731 0.526c0.951 0.289 1.73 0.678 1.73 0.864 0 0.819 2.599 1.47 3.692 0.924 1.156-0.576 1.423-0.128 0.589 0.985-0.506 0.674-10.146-0.795-10.418-1.587-0.084-0.245-0.281-0.241-0.586 0.012-0.325 0.27-1.666 0.111-4.609-0.548-2.283-0.51-4.724-1.05-5.426-1.199-0.829-0.176-1.234-0.452-1.158-0.789 0.064-0.285-0.182-0.74-0.546-1.011-0.818-0.607 3.078-0.274 5.62 0.48 1.276 0.379 1.848 0.37 3.246-0.051 0.933-0.281 2.368-0.516 3.188-0.522 1.945-0.014 1.064-0.547-1.467-0.887-1.502-0.201-2.024-0.465-2.684-1.358-0.741-1.002-0.962-1.088-2.325-0.907-1.097 0.147-1.333 0.104-0.868-0.158 0.897-0.504 0.792-1.051-0.201-1.051-0.46 0-1.031-0.194-1.269-0.431-0.237-0.237-0.556-0.305-0.709-0.152-0.154 0.153 8e-3 0.488 0.358 0.744 0.901 0.659 0.813 0.75-0.72 0.75-1.121 0-1.442 0.175-1.842 1.002-0.658 1.362-1.254 1.264-1.109-0.182 0.208-2.076-1.309-1.867-1.843 0.254-0.467 1.857-0.487 1.864-3.867 1.271-1.203-0.211-2.678-0.463-3.279-0.561-0.601-0.099-1.339-0.269-1.639-0.379-2.025-0.743-5.512-0.877-5.735-0.221-0.085 0.251 0.105 0.456 0.422 0.456s0.577 0.173 0.577 0.385c0 0.213-0.164 0.285-0.365 0.161-0.2-0.124-0.364-0.065-0.364 0.13 0 0.196 0.205 0.441 0.455 0.545 0.251 0.104 0.046 0.139-0.455 0.077-0.655-0.08-0.882-0.304-0.808-0.796 0.056-0.377 0.141-1.094 0.189-1.595 0.047-0.501 0.209-1.105 0.358-1.341 0.404-0.638 0.181-0.704-5.943-1.766-3.1-0.537-5.712-1.05-5.806-1.139-0.26-0.249 4.804 0.305 5.653 0.618 0.411 0.152 1.19 0.191 1.731 0.088 0.541-0.104 0.984-0.046 0.984 0.127 1e-3 0.174 0.618 0.332 1.371 0.35 0.754 0.019 2.516 0.37 3.916 0.78 5.459 1.599 12.489 2.452 11.423 1.386-0.099-0.099-2.547-0.589-5.44-1.088-7.262-1.252-7.643-1.34-7.418-1.703 0.108-0.176 0.52-0.32 0.913-0.32 1.743 0 1.69-2.123-0.119-4.754-1.972-2.869-2.676-3.19-3.592-1.639-0.994 1.685-1.394 1.636-1.323-0.164 0.032-0.801 0.169-1.457 0.305-1.457 0.135 0 0.361-0.615 0.502-1.366 0.14-0.752 0.445-1.598 0.678-1.881 0.321-0.392 0.319-0.55-0.012-0.661-0.24-0.081-1.041-0.628-1.781-1.216-1.565-1.244-3.223-1.41-3.775-0.379m18.455 9.37c-0.34 0.341 0.333 2.816 0.832 3.061 1.015 0.499 3.304 1.144 4.647 1.311 0.735 0.091 1.601 0.406 1.925 0.699 0.839 0.76 1.164 0.66 0.63-0.194-0.302-0.485-1.017-0.802-2.142-0.952-2.146-0.284-2.92-0.724-2.147-1.22 0.58-0.373-0.383-1.434-1.325-1.46-0.229-7e-3 -0.502-0.235-0.607-0.508-0.186-0.483-1.522-1.027-1.813-0.737m-48.894 0.794c7.212 1.033 8.576 1.33 8.386 1.825-0.104 0.272-0.19 0.729-0.19 1.015 0 0.401-0.357 0.475-1.548 0.323-4.172-0.532-6.831-1.032-6.831-1.284 0-0.153-0.317-0.196-0.704-0.095-0.828 0.217-3.367-0.544-3.753-1.125-0.89-1.339-0.498-1.394 4.64-0.659m58.931 1.864c0.161 0.616 0.032 0.761-0.678 0.761-1.114 0-1.158 0.932-0.057 1.227 1.484 0.398 1.797 0.284 1.531-0.554-0.201-0.633-0.131-0.738 0.365-0.548 0.479 0.184 0.588 0.056 0.497-0.582-0.077-0.542-0.41-0.86-0.986-0.941-0.727-0.103-0.838 2e-3 -0.672 0.637m-44.36 0.396c0.608 0.261 0.528 0.318-0.476 0.339-0.717 0.015-1.114-0.122-0.981-0.339 0.263-0.424 0.469-0.424 1.457 0m-1.666 1.413c0.995 0.278 1.43 1.016 0.6 1.016-0.298 0-0.446-0.154-0.329-0.342 0.127-0.206-0.245-0.243-0.927-0.093-0.686 0.151-1.138 0.105-1.138-0.116 0-0.202-0.287-0.442-0.638-0.533-0.351-0.092-0.146-0.17 0.455-0.173 0.602-3e-3 1.491 0.105 1.977 0.241m-12.155 0.603c-0.901 0.681-1.297 0.678-1.297-0.012 0-0.356 0.349-0.542 1.002-0.535 0.959 0.011 0.972 0.034 0.295 0.547m43.148 5.067c2.868 0.294 6.959 1.062 7.13 1.339 0.268 0.433-1.147 0.405-3.529-0.07-1.079-0.215-2.454-0.479-3.055-0.587s-1.339-0.247-1.639-0.309c-0.301-0.063-0.67-0.126-0.82-0.142-0.15-0.015-0.273-0.209-0.273-0.431 0-0.238 0.261-0.299 0.637-0.148 0.351 0.14 1.048 0.297 1.549 0.348m3.05 2.035c0.174 0.164-0.29 0.161-1.031-7e-3 -0.742-0.167-1.459-0.419-1.593-0.56-0.339-0.356 2.231 0.199 2.624 0.567m-5.815 0.739c1.065 0.255 1.042 0.271-0.423 0.307-1.175 0.028-1.548-0.1-1.548-0.531 0-0.339 0.171-0.462 0.423-0.306 0.233 0.144 0.93 0.383 1.548 0.53m12.601 2.389c0 0.139-0.328-0.043-0.729-0.406-0.401-0.362-0.729-0.829-0.729-1.036s0.328-0.024 0.729 0.406 0.729 0.896 0.729 1.036m0.787-0.036c0.155 0.578 0.213 1.119 0.129 1.203s-0.268-0.318-0.408-0.892c-0.141-0.575-0.436-1.181-0.656-1.346-0.259-0.196-0.215-0.251 0.128-0.158 0.289 0.078 0.653 0.615 0.807 1.193m3.948-0.734c0 0.656 0.169 0.674 1.208 0.129l0.796-0.417-0.728 0.844c-0.401 0.464-0.512 0.717-0.247 0.561 0.664-0.389 2.611-0.496 2.386-0.131-0.286 0.462 0.241 1.781 0.619 1.548 0.186-0.115 0.338 0.092 0.338 0.46s0.253 1.031 0.563 1.473c0.552 0.787 0.539 0.8-0.637 0.601-1.154-0.194-1.172-0.179-0.472 0.386 0.4 0.323 0.749 0.745 0.774 0.937s0.085 0.471 0.133 0.622c0.048 0.15 0.119 0.437 0.157 0.637 0.21 1.094 0.779 1.645 1.921 1.859 0.898 0.168 1.13 0.332 0.785 0.551-0.381 0.241-0.348 0.313 0.146 0.317 0.35 3e-3 0.637-0.168 0.637-0.38 0-0.213 0.205-0.266 0.456-0.12 0.25 0.147 0.127-0.107-0.274-0.564-0.4-0.457-0.677-1.141-0.614-1.52 0.068-0.412-0.099-0.689-0.416-0.689-0.291 0-0.634-0.417-0.762-0.926s-0.376-0.837-0.552-0.728-0.234-0.131-0.129-0.532 0.033-0.729-0.159-0.729-0.653-0.563-1.024-1.252-0.807-1.172-0.968-1.072-0.294 8e-3 -0.294-0.204c0-0.497 0.147-0.487 1.571 0.108 1.195 0.5 1.195 0.499 4.547 8.276 0.274 0.637-2.274 0.557-5.93-0.185-4.408-0.896-6.073-1.542-5.26-2.045 0.402-0.248 0.386-0.421-0.09-0.962-0.818-0.931-1.221-2.35-0.599-2.111 0.636 0.244 0.663-1.655 0.032-2.309-0.672-0.698-0.57-1.158 0.258-1.158 0.466 0 0.803-0.323 0.95-0.911 0.248-0.989 0.878-1.25 0.878-0.364m-47.34 0.546c0.178 0 0.229 0.246 0.113 0.547-0.115 0.3-0.365 0.546-0.556 0.546s-0.253-0.152-0.137-0.339c0.115-0.186 0.043-0.442-0.161-0.568s-0.37 0.037-0.37 0.361-0.157 0.492-0.349 0.374c-0.54-0.334 0.011-1.353 0.608-1.124 0.291 0.112 0.674 0.203 0.852 0.203m79.034 1.046c0 0.182 0.586 0.44 1.301 0.575 0.716 0.134 1.536 0.333 1.822 0.443s0.52 0.022 0.52-0.196-0.409-0.482-0.91-0.586-1.321-0.274-1.822-0.378-0.911-0.04-0.911 0.142m4.008 0.694c0 0.4 1.204 0.798 2.437 0.805 1.081 7e-3 1.387 0.626 0.826 1.673-0.655 1.224-1.255 1.317-4.488 0.699-3.346-0.641-3.147-0.625-3.147-0.239 0 0.168 1.435 0.521 3.188 0.785 1.753 0.263 3.442 0.606 3.753 0.761 0.312 0.156 0.781 0.15 1.044-0.012 0.324-0.201 0.346-0.338 0.067-0.431-0.808-0.269 1.301-2.784 2.221-2.648 3.189 0.471 13.01 2.031 13.68 2.172 0.653 0.139 0.819 0.422 0.819 1.401 0 1.133 0.106 1.247 1.367 1.47 3.145 0.557 3.697 1.522 0.792 1.383-1.897-0.091-0.941 0.489 1.152 0.699 1.234 0.124 1.244 0.114 1.313-1.459 0.039-0.872 0.137-2.326 0.218-3.233 0.275-3.072-2.745-4.604-3.926-1.99-0.332 0.735-1.149 0.994-2.737 0.867-0.802-0.064-3.375-0.426-4.007-0.564-1.397-0.304-3.209-0.622-4.372-0.767-0.701-0.088-2.586-0.392-4.189-0.678-1.603-0.285-3.161-0.519-3.461-0.519-0.301-1e-3 -0.997-0.122-1.548-0.269-0.6-0.16-1.002-0.122-1.002 0.094m-73.23 0.628c-0.011 0.754-0.62 1.292-1.207 1.067-0.999-0.384-0.763-1.545 0.302-1.484 0.5 0.029 0.908 0.217 0.905 0.417m65.762 1.633-1.458 0.209 1.414 0.288c0.831 0.17 1.557 0.145 1.762-0.06 0.518-0.518-0.083-0.671-1.718-0.437m-55.199 0.731c0.88 0.471 0.708 1.686-0.216 1.522-0.966-0.171-1.367-0.644-1.111-1.311 0.256-0.669 0.422-0.695 1.327-0.211m67.038 1.85c0 0.226 0.313 0.29 0.746 0.152 0.411-0.13 0.964-0.056 1.229 0.164 0.267 0.222 0.788 0.281 1.167 0.131 0.579-0.228 0.516-0.306-0.409-0.509-1.734-0.381-2.733-0.358-2.733 0.062m-20.4 0.704c0 0.201 0.327 0.365 0.728 0.365s0.729 0.158 0.729 0.352c0 0.195-0.261 0.253-0.579 0.131s-0.919-0.24-1.336-0.261c-1.008-0.053-1.293-0.951-0.301-0.951 0.417 0 0.759 0.164 0.759 0.364m3.643 0.365c0 0.2 0.532 0.352 1.184 0.338 0.992-0.021 1.066-0.076 0.455-0.338-1.007-0.433-1.639-0.433-1.639 0m23.133 0c-0.124 0.2 0.102 0.364 0.503 0.364s0.83-0.164 0.954-0.364c0.124-0.201-0.103-0.365-0.504-0.365-0.4 0-0.83 0.164-0.953 0.365m-19.503 1.431c0.423 0.829 0.655 1.692 0.517 1.916-0.159 0.256-0.087 0.306 0.192 0.133 0.273-0.168 0.419-0.084 0.378 0.217-0.136 0.992 0.026 1.805 0.324 1.621 0.169-0.104 0.328 0.4 0.355 1.12l0.05 1.308-0.786-0.686-0.785-0.685 0.703 0.968c0.387 0.532 0.761 0.812 0.83 0.622 0.079-0.213 0.287-0.216 0.547-7e-3 1.295 1.043 3.516 0.882 3.516-0.255 0-0.606-0.174-1.211-0.388-1.343-0.25-0.155-0.31-1.155-0.168-2.815 0.162-1.899 0.096-2.653-0.25-2.872-0.731-0.465-1.379-0.361-1.379 0.219 0 1.068-0.798 4.208-1.069 4.208-0.154 0-0.825-1.074-1.491-2.386s-1.358-2.477-1.538-2.588 0.018 0.476 0.442 1.305m21.688-1.067c-0.123 0.2-0.174 0.373-0.112 0.383 2.19 0.36 3.209 0.352 3.209-0.024 0-0.285-0.318-0.358-0.911-0.209-0.525 0.131-0.911 0.071-0.911-0.143 0-0.478-0.98-0.484-1.275-7e-3m-37.163 2.626c2.296 0.614 2.056 0.968-0.359 0.53-1.102-0.2-2.004-0.5-2.004-0.667 0-0.407 0.42-0.383 2.363 0.137m70.138 0.271c-1.106 0.85-0.96 1.028 1.053 1.28 1.331 0.168 1.537 0.109 1.349-0.38-0.122-0.318-0.222-0.81-0.222-1.095 0-0.727-1.109-0.628-2.18 0.195m-14.423 1.152c1.34 0.721 6.053 1.783 7.678 1.731 1.166-0.038-0.843-0.6-2.301-0.644-0.664-0.02-1.975-0.35-2.914-0.734-2.718-1.112-4.293-1.338-2.463-0.353m8.669-0.321c-0.898 0.433-0.904 1.124-0.012 1.298 0.305 0.059 0.828-0.31 1.162-0.82 0.673-1.026 0.305-1.179-1.15-0.478m4.473 3.166c0.401 0.187 1.098 0.352 1.549 0.366 0.45 0.014 0.819 0.223 0.819 0.463 0 0.34 0.097 0.34 0.437 0 0.241-0.24 0.61-0.435 0.82-0.432 0.211 4e-3 0.141 0.159-0.153 0.345-0.848 0.536-0.166 0.851 0.764 0.354 0.824-0.441 0.825-0.453 0.09-0.725-1.171-0.433-5.196-0.779-4.326-0.371m10.218 1.457c-0.115 0.185-1e-3 0.408 0.251 0.494 0.253 0.087 0.184 0.117-0.154 0.068-0.337-0.049-0.693 0.118-0.79 0.371-0.254 0.66-2.211 1.273-2.824 0.885-0.279-0.177-0.344-0.338-0.143-0.358 1.576-0.155 1.966-0.302 2.666-1.002 0.809-0.809 1.371-1.068 0.994-0.458m2.12 2.934c0.528 0.798 0.946 1.74 0.93 2.095-0.017 0.381-0.103 0.459-0.212 0.19-0.346-0.857-1.289-0.53-1.009 0.35 0.25 0.788 0.236 0.792-0.613 0.174-0.478-0.347-1.31-0.804-1.849-1.016-1.525-0.597-1.494-1.835 0.063-2.577 1.721-0.821 1.606-0.854 2.69 0.784m-60.632 0.52c0.687 0.714 1.306 1.243 1.375 1.174 0.323-0.323-0.382-1.204-1.447-1.806l-1.178-0.667 1.25 1.299m1.924 2.474c0.292 0.44 0.76 0.876 1.04 0.969 0.341 0.114 0.301-0.038-0.122-0.461-0.347-0.348-0.631-0.784-0.631-0.97s-0.184-0.338-0.409-0.338c-0.265 0-0.222 0.281 0.122 0.8m-15.175 0.336c0.89 0.224 1.618 0.541 1.618 0.703 0 0.27-0.769 0.096-3.278-0.743-1.361-0.455-0.195-0.427 1.66 0.04m74.842 0.485c0 0.283-1.419 0.449-1.803 0.212-0.237-0.147 0.069-0.278 0.688-0.295 0.614-0.018 1.115 0.02 1.115 0.083m28.66 1.202c-0.09 0.151-0.355 1.204-0.588 2.34-0.234 1.137-0.662 2.264-0.952 2.504-1.324 1.099 0.161 2.533 2.625 2.533 0.928 0 1.185-0.982 0.449-1.718-0.299-0.3-0.294-1.054 0.021-2.862 0.345-1.984 0.336-2.513-0.048-2.757-0.598-0.379-1.294-0.397-1.507-0.04m-51.793 1.569c0.802 0.166 1.867 0.295 2.368 0.287l0.911-0.016-0.911-0.291c-0.501-0.161-1.566-0.29-2.368-0.287l-1.457 6e-3 1.457 0.301m11.339 1.241c0.218 0.568 0.624 0.728 2.781 1.092 3.174 0.535 3.812 0.532 4.494-0.022 0.382-0.31 0.489-0.46 0.239-0.333-0.251 0.127-0.456 0.063-0.456-0.143 0-0.205-0.368-0.566-0.819-0.803-0.816-0.428-0.817-0.426-0.124 0.354 0.902 1.016 0.534 1.369-0.631 0.607-0.602-0.395-0.988-0.466-1.146-0.211-0.167 0.27-0.459 0.267-0.976-9e-3 -0.406-0.218-0.831-0.301-0.946-0.187-0.115 0.115-0.429 0.026-0.698-0.197-0.368-0.306-0.491-0.283-0.499 0.094-8e-3 0.339-0.131 0.295-0.383-0.137-0.448-0.771-1.124-0.855-0.836-0.105m-188.2 0.846c2e-3 0.143 0.66 0.617 1.462 1.052 0.802 0.436 1.375 0.657 1.273 0.492-0.282-0.455-2.738-1.843-2.735-1.544m118.39 0.443c0 0.404-0.243 0.728-0.546 0.728-0.993 0-0.648-1.08 0.455-1.428 0.05-0.016 0.091 0.299 0.091 0.7m60.986-0.308c-0.17 0.273-0.099 0.321 0.201 0.135 0.269-0.166 0.594-0.075 0.779 0.217 0.252 0.397 0.319 0.369 0.324-0.135 6e-3 -0.715-0.903-0.866-1.304-0.217m19.07 0.368c0.096 0.368 0.31 0.668 0.474 0.668 0.165 0 0.277-0.3 0.249-0.668-0.028-0.367-0.241-0.668-0.474-0.668s-0.345 0.301-0.249 0.668m-15.575-0.091c0 0.188-0.205 0.414-0.455 0.503-0.251 0.089-0.012 0.107 0.53 0.039 0.707-0.088 0.933 0.016 0.798 0.367-0.169 0.441 0.081 0.575 1.859 0.998 0.852 0.202 1.206 0.853 0.6 1.104-0.464 0.191-0.41 0.253 0.242 0.273 0.463 0.014 0.74 0.189 0.616 0.39-0.124 0.2-0.052 0.364 0.16 0.364s0.386 0.402 0.386 0.893 0.287 1.059 0.638 1.264c0.587 0.342 0.58 0.375-0.091 0.424-3.403 0.247 3.788 0.827 10.2 0.822 11.34-8e-3 28.198-0.28 28.028-0.451-0.08-0.079-0.926-0.273-1.882-0.431s-8.689-1.454-17.184-2.88c-10.792-1.811-15.562-2.477-15.829-2.21-0.267 0.268-0.233 0.383 0.115 0.383 0.274 0 0.415 0.083 0.315 0.184-0.101 0.101-0.826-0.066-1.609-0.37-1.174-0.456-1.233-0.519-0.333-0.361 0.765 0.135 0.928 0.091 0.542-0.146-0.863-0.531-3.755-0.883-3.471-0.423 0.335 0.542-0.02 0.483-0.602-0.099-0.591-0.591-3.573-1.123-3.573-0.637m16.758 0.304c0 0.25 0.232 0.455 0.516 0.455s0.61-0.205 0.725-0.455c0.115-0.251 0.127-0.115 0.026 0.302-0.161 0.663-0.047 0.737 0.914 0.596 0.697-0.102 1.098-3e-3 1.098 0.273 0 0.298 0.359 0.356 1.138 0.185 0.805-0.177 1.064-0.129 0.884 0.162-0.182 0.294 0.197 0.349 1.321 0.191 1.168-0.163 1.433-0.119 1.028 0.168-0.451 0.321-0.4 0.39 0.295 0.394 0.463 3e-3 0.749-0.143 0.637-0.325-0.112-0.181 0.165-0.242 0.616-0.134 0.758 0.181 0.776 0.149 0.239-0.42-0.551-0.584-2.417-1.005-4.266-0.961-0.467 0.011-0.74-0.141-0.616-0.342 0.123-0.2 0.091-0.375-0.071-0.389-0.162-0.015-0.693-0.101-1.179-0.19-0.487-0.09-1.017 0.045-1.179 0.3-0.194 0.307-0.295 0.322-0.299 0.046-3e-3 -0.229-0.415-0.393-0.916-0.364s-0.911 0.257-0.911 0.508m-190.04 1.539c-0.215 0.806-0.345 1.466-0.289 1.466s0.35 0.096 0.655 0.213c0.386 0.148 0.769-0.236 1.271-1.275 0.541-1.119 0.599-1.488 0.235-1.488-0.266 0-0.708-0.086-0.982-0.191-0.339-0.13-0.623 0.277-0.89 1.275m-3.164-0.841c-0.553 0.553-0.269 1.689 0.304 1.214 0.3-0.249 0.546-0.679 0.546-0.955 0-0.531-0.443-0.666-0.85-0.259m118.97 0.075c0.15 0.026 0.273 0.292 0.273 0.593 0 0.602-1.322 0.736-2.141 0.217-1.056-0.668 2e-3 -1.127 1.868-0.81m56.579 0.581c1.007 0.762 2.248 0.772 1.488 0.012-0.301-0.301-0.918-0.546-1.371-0.546-0.803 0-0.806 0.013-0.117 0.534m27.888 0.061c0.372 0.448 0.36 0.619-0.064 0.901-0.359 0.238-0.192 0.27 0.533 0.101 0.814-0.19 0.989-0.138 0.764 0.226-0.23 0.373 0.034 0.421 1.247 0.227 0.847-0.135 1.458-0.113 1.358 0.049s0.093 0.311 0.429 0.33c0.335 0.02 1.512 0.284 2.614 0.587s4.709 0.984 8.015 1.514 6.298 1.024 6.649 1.097c1.378 0.288 0.189-0.455-1.449-0.905-0.957-0.263-2.067-0.687-2.468-0.943s-0.893-0.493-1.093-0.527c-0.2-0.033-0.774-0.231-1.275-0.438s-1.567-0.384-2.368-0.393c-0.802-9e-3 -1.578-0.189-1.725-0.399-0.17-0.244-0.27-0.201-0.273 0.117-5e-3 0.397-0.115 0.409-0.537 0.059-0.319-0.265-0.962-0.347-1.609-0.205-0.821 0.181-1.168 0.08-1.461-0.423-0.332-0.571-0.385-0.58-0.395-0.061-6e-3 0.329-0.265 0.696-0.576 0.815-0.367 0.141-0.475 0.07-0.308-0.2 0.173-0.28 0.017-0.355-0.47-0.227-0.401 0.105-1.343-0.109-2.094-0.474-1.092-0.531-1.324-0.557-1.161-0.133 0.112 0.292 0.045 0.531-0.149 0.531s-0.353-0.21-0.353-0.467c0-0.256-0.504-0.656-1.12-0.889-0.986-0.372-1.065-0.357-0.661 0.13m3.118 0.126c0.506 0.453 3.547 1.103 3.109 0.665-0.209-0.209-1.062-0.505-1.896-0.658-0.834-0.152-1.38-0.155-1.213-7e-3m-211.68 0.31c-0.25 0.405 3.335 3.914 3.663 3.586 0.141-0.141-0.429-0.936-1.266-1.765-0.838-0.83-1.524-1.647-1.524-1.816 0-0.397-0.629-0.4-0.873-5e-3m231.47 2.79c0.247 0.298 0.613 0.441 0.812 0.318 0.22-0.135 0.168-0.346-0.132-0.536-0.786-0.498-1.172-0.375-0.68 0.218m2.164 1.07c0.484 0.515 1.062 0.796 1.383 0.673 0.447-0.171 0.387-0.339-0.312-0.876-1.317-1.013-2.078-0.868-1.071 0.203m-232.53 0.018c0.121 0.316 0.629 0.543 1.176 0.526 0.565-0.017 0.737-0.112 0.417-0.231-0.301-0.112-0.83-0.348-1.176-0.526-0.486-0.25-0.581-0.197-0.417 0.231m8.514 0.486c0 0.354-1.39 1.891-1.71 1.891-0.123 0 0.047-0.3 0.379-0.667 0.331-0.366 0.603-0.858 0.603-1.093 0-0.234 0.164-0.426 0.364-0.426s0.364 0.133 0.364 0.295m228.64 0.614c-0.379 0.287-0.871 0.59-1.093 0.673-0.258 0.097-0.181 0.386 0.216 0.802 0.511 0.536 0.717 0.568 1.179 0.185 0.814-0.676 0.922-0.603 7.874 5.293 5.173 4.387 17.608 17.087 17.608 17.846 0 1.07 1.103 1.427 2.349 0.76 1.274-0.682-10.371-12.76-14.761-16.468-11.153-9.422-12.092-10.06-13.372-9.091m-235.65 2.447c0.909 1.66 0.816 2.186-0.222 1.247-0.382-0.345-0.94-0.513-1.277-0.384-0.334 0.128-0.599 0.052-0.599-0.173 0-0.222 0.25-0.403 0.556-0.403 0.496 0 0.497-0.114 9e-3 -1.057-0.915-1.769 0.543-1.037 1.533 0.77m19.031 0.495c0 0.44 1.661 1.582 2.62 1.802 0.601 0.137 0.911 0.407 0.8 0.697-0.174 0.453 3.146 3.234 3.472 2.908 0.086-0.085-0.528-0.741-1.364-1.456-1.628-1.394-1.907-1.997-0.883-1.911 3.251 0.272 2.895-0.994-0.425-1.513-1.419-0.222-2.949-0.481-3.4-0.576s-0.82-0.073-0.82 0.049m-14.208 0.52c0 0.201-0.245 0.365-0.546 0.365s-0.546-0.164-0.546-0.365c0-0.2 0.245-0.364 0.546-0.364s0.546 0.164 0.546 0.364m-2.55 0.343c0 0.43-0.71 0.89-0.971 0.629s0.199-0.972 0.629-0.972c0.188 0 0.342 0.155 0.342 0.343m116.27 0.239c0.89 0.55 0.274 1.604-0.937 1.604-1.819 0-2.398-0.329-2.398-1.36 0-0.89 2.048-1.04 3.335-0.244m42.855 2.151c-0.799 1.059-0.539 1.277 1.503 1.263 1.389-0.01 1.572-0.086 1.087-0.455-0.321-0.244-0.595-0.6-0.611-0.79-0.065-0.814-1.37-0.825-1.979-0.018m9.912 1.405c0 0.1 0.943 0.377 2.095 0.614s2.556 0.669 3.121 0.959c0.564 0.289 1.22 0.461 1.457 0.38 0.808-0.275-2.477-1.624-4.578-1.88-1.152-0.141-2.095-0.174-2.095-0.073m-20.472 2c1.454 2.245 1.908 3.349 1.108 2.7-0.307-0.249-0.638-0.372-0.736-0.274-0.099 0.099-0.179-0.026-0.179-0.278s-0.438-1.15-0.972-1.996c-1.046-1.657-1.137-1.918-0.668-1.918 0.166 0 0.818 0.795 1.447 1.766m55.651-0.713c-0.325 0.526-0.038 1.017 5.19 8.882 2.5 3.761 4.452 6.932 4.337 7.046-0.114 0.115-1.982-0.059-4.151-0.385s-5.896-0.85-8.283-1.166l-4.34-0.573-8.391-5.334c-4.615-2.933-8.441-5.293-8.502-5.243-0.456 0.377 0.129 0.915 3.169 2.911 1.903 1.251 5.772 3.67 8.596 5.376l5.136 3.103 6.886 1.059c3.787 0.582 7.714 1.166 8.725 1.296 1.864 0.241 3.534 0.901 2.308 0.913-0.324 3e-3 -4.094-0.487-8.379-1.089-4.284-0.602-8.25-1.149-8.812-1.215-0.87-0.103-1.101 0.068-1.553 1.15-0.741 1.774-0.962 1.697 8.586 2.996 2.905 0.395 6.758 0.95 8.561 1.233 7.391 1.162 8.879 1.371 11.84 1.663 1.703 0.169 3.375 0.417 3.716 0.551 0.531 0.21 0.591 0.067 0.418-0.998-0.441-2.72 2.974-4.302 3.919-1.816l0.35 0.92 0.731-0.784c0.855-0.918 1.345-0.964 2.967-0.278 0.657 0.279 2.128 0.678 3.267 0.887 1.946 0.357 8.562 4.02 14.024 7.763 0.837 0.575 1.726 1.044 1.976 1.044 0.9 0-1.327-1.866-4.206-3.525-1.615-0.93-4.253-2.545-5.863-3.587-3.199-2.072-3.603-2.243-5.942-2.511-0.87-0.099-1.772-0.333-2.003-0.52-0.232-0.187-1.323-0.449-2.425-0.583-5.314-0.645-6.938-1.395-6.916-3.195 4e-3 -0.329 0.11-0.306 0.359 0.078 0.301 0.467 0.353 0.454 0.358-0.091 3e-3 -0.351-0.22-0.638-0.496-0.638s-0.717-0.259-0.98-0.576c-0.476-0.574 0.752-0.539 3.03 0.086 0.351 0.096 0.638 0 0.638-0.214s-0.287-0.401-0.638-0.416c-1.173-0.049-2.258-0.326-3.456-0.882l-1.189-0.552 1.457 0.163c0.802 0.089 2.424 0.332 3.604 0.538 1.181 0.206 2.292 0.285 2.47 0.176 0.549-0.34-1.004-2.083-1.924-2.161-2.427-0.205-6.517-1.025-6.517-1.306 0-0.419 0.727-0.387 3.916 0.172 2.255 0.396 2.641 0.388 2.641-0.053 0-0.284-0.205-0.44-0.455-0.346-0.251 0.094-0.784 0.041-1.184-0.118-0.69-0.273-0.685-0.29 0.094-0.314 0.724-0.022 0.769-0.111 0.377-0.74-0.322-0.515-0.524-0.591-0.727-0.273-0.17 0.268-0.282 0.048-0.285-0.56-3e-3 -0.557-0.574-1.791-1.285-2.782l-1.28-1.781-3.001-0.418c-6.892-0.959-6.224-0.961-6.014 0.013 0.103 0.478 0.311 1.197 0.462 1.598 0.152 0.4-0.189 0.036-0.757-0.811-1.163-1.735-3.518-2.97-4.348-2.281-0.279 0.231-0.562 0.256-0.683 0.06-0.272-0.441-2.324-0.9-3.61-0.808-0.561 0.04-1.236-0.106-1.5-0.325-0.353-0.293-0.591-0.265-0.9 0.108-0.564 0.68-0.216 1.44 2.694 5.878 1.314 2.004 2.632 4.176 2.928 4.827 0.297 0.651 0.702 1.184 0.9 1.184 0.197 0 0.359 0.328 0.359 0.729 0 0.4 0.164 0.728 0.364 0.728 0.201 0 0.365 0.246 0.365 0.547 0 0.3 0.124 0.546 0.276 0.546s0.482 0.328 0.732 0.729c0.375 0.6 0.364 0.728-0.063 0.728-0.602 0-1.733-1.507-4.771-6.354-5.178-8.264-6.67-10.445-6.897-10.079m-211.32 2.59c0.702 0.302 0.699 0.314-0.07 0.339-0.439 0.014-0.9-0.139-1.023-0.339-0.267-0.431 0.09-0.431 1.093 0m220.76 0.127c1.645 0.345 1.983 0.513 1.366 0.678-0.451 0.121-0.911 0.071-1.023-0.111-0.113-0.181-0.727-0.332-1.367-0.335-0.639-3e-3 -1.408-0.165-1.709-0.359-0.763-0.494-0.065-0.461 2.733 0.127m0.91 1.522 2.368 0.512-2.368-0.21c-1.302-0.116-2.614-0.351-2.914-0.523-0.811-0.465 0.038-0.4 2.914 0.221m11.02 0.406c0.351 0.099 0.638 0.333 0.638 0.52 0 0.423 0.207 0.458-2.368-0.399-2.115-0.704-0.687-0.804 1.73-0.121m-207.15 0.832 0.892 0.701-1.017-0.077c-1.245-0.095-2.01-0.531-1.729-0.986 0.32-0.518 0.874-0.41 1.854 0.362m209.79-0.094c0.641 0.513 0.648 0.556 0.062 0.352-0.367-0.127-0.818-0.231-1.002-0.231s-0.335-0.164-0.335-0.364c0-0.516 0.431-0.434 1.275 0.243m-12.932 0.122c0.85 7e-3 1.111 0.114 0.783 0.322-0.478 0.303-3.295-0.139-3.687-0.579-0.106-0.118 0.217-0.112 0.718 0.015s1.485 0.236 2.186 0.242m4.175 0.977c-0.312 0.311-0.658 0.476-0.768 0.365-0.277-0.277 0.715-1.307 1.058-1.099 0.152 0.092 0.021 0.422-0.29 0.734m6.572-0.409 2.185 0.522-1.915-0.194c-1.054-0.107-2.284-0.342-2.733-0.522-1.222-0.492-7e-3 -0.396 2.463 0.194m-7.743 1.561c0.167 0.167-0.715 0.164-1.961-6e-3s-2.359-0.41-2.474-0.533c-0.32-0.343 4.089 0.193 4.435 0.539m9.866 0.049c0.385 0.36-2.605 0.024-3.577-0.403-0.471-0.206-0.017-0.242 1.272-0.101 1.102 0.122 2.139 0.348 2.305 0.504m-10.224 0.946c0.954 0.131 1.835 0.401 1.958 0.6 0.143 0.23-0.323 0.281-1.279 0.14-0.827-0.122-2.159-0.318-2.961-0.436-0.801-0.118-1.457-0.377-1.457-0.575 0-0.199 0.45-0.273 1.002-0.164 0.551 0.108 1.782 0.304 2.737 0.435m11.015 0.601c0.248 0.253-0.276 0.292-1.639 0.122-1.102-0.137-2.168-0.42-2.368-0.629-0.252-0.261 0.255-0.299 1.639-0.122 1.102 0.141 2.168 0.424 2.368 0.629m-7.598 0.464c0.593 0.593 0.505 0.667-0.387 0.325-0.317-0.122-0.576-0.367-0.576-0.546 0-0.478 0.344-0.399 0.963 0.221m-1.27 0.899c0.625 0.26 0.316 0.294-1.15 0.126-2.875-0.329-4.373-0.891-1.764-0.662 1.133 0.1 2.444 0.341 2.914 0.536m-63.081 0.601c0 0.3-0.164 0.445-0.364 0.321-0.201-0.124-0.365-0.471-0.365-0.771 0-0.301 0.164-0.446 0.365-0.322 0.2 0.124 0.364 0.471 0.364 0.772m3.18 0.231c0.151-0.431 1.495-0.391 4.015 0.12 0.898 0.182 1.144 1.245 0.288 1.245-0.807 0-6.132-0.761-6.754-0.965-0.452-0.149-0.425-0.27 0.156-0.697 0.617-0.454 0.792-0.439 1.42 0.117 0.525 0.465 0.758 0.513 0.875 0.18m11.681-0.252c1.023 0.325-0.25 1.707-1.321 1.433-0.534-0.137-1.259-0.306-1.611-0.376-0.351-0.07-0.802-0.228-1.001-0.351-0.2-0.124-0.363-0.057-0.363 0.148 0 0.484 1.375 1.221 1.795 0.962 0.178-0.11 0.707-0.046 1.177 0.142 0.778 0.312 0.742 0.343-0.422 0.36-2.241 0.032-2.967-0.319-2.843-1.371 0.148-1.259 2.247-1.692 4.589-0.947m50.531-0.204c0.124 0.2-0.122 0.364-0.547 0.364-0.424 0-0.67-0.164-0.546-0.364 0.124-0.201 0.37-0.365 0.546-0.365 0.177 0 0.423 0.164 0.547 0.365m-1.16 1.111c0.537 0.23-0.032 0.268-1.755 0.117-1.402-0.122-2.796-0.377-3.096-0.565-0.702-0.439 3.739-0.029 4.851 0.448m11.097 0.157c0.956 0.073 1.799 0.779 1.403 1.174-0.148 0.148-0.385 0.081-0.526-0.148-0.254-0.41-4.375-1.09-5.623-0.928-0.351 0.045-0.638-0.101-0.638-0.325 0-0.287 0.673-0.323 2.277-0.122 1.253 0.157 2.651 0.314 3.107 0.349m-8.858 0.576c-0.106 0.17-0.432 0.218-0.725 0.105-0.293-0.112-0.446-0.344-0.341-0.514 0.106-0.171 0.432-0.219 0.725-0.106 0.293 0.112 0.446 0.344 0.341 0.515m0.921 0.201c-0.033 0.133 0.097 0.342 0.288 0.464 0.421 0.271 4.087 5.097 4.087 5.381 0 0.111-0.238 0.111-0.528 0-0.353-0.136-0.461-0.028-0.325 0.325 0.223 0.583-1.371 0.721-3.473 0.3-1.814-0.362-1.317-0.859 0.647-0.647 2.264 0.245 2.53-0.174 1.369-2.155-1.115-1.903-2.579-3.637-2.286-2.708 0.111 0.351 0.052 0.638-0.13 0.638-0.611 0-0.736-0.642-0.21-1.079 0.287-0.237 0.476-0.625 0.42-0.86-0.055-0.236-0.033-0.31 0.049-0.165 0.083 0.145 0.124 0.373 0.092 0.506m-204.52 0.183c0.229 0.371-1.086 0.418-2.334 0.084-0.506-0.135-0.687-0.329-0.447-0.477 0.513-0.317 2.517-0.034 2.781 0.393m201.61 0.354c0.959 0.238 0.705 0.268-1.027 0.121-1.265-0.107-2.659-0.347-3.096-0.534-0.934-0.398 2.067-0.097 4.123 0.413m-29.953 1.516c-0.085 0.852-0.225 1.785-0.31 2.073-0.086 0.289 0.117 0.585 0.45 0.658 0.508 0.112 0.574-0.097 0.413-1.297-0.115-0.86-0.03-1.531 0.214-1.681 0.579-0.358 0.503-1.301-0.103-1.301-0.333 0-0.564 0.538-0.664 1.548m-52.332-0.578c0.457 0.555 0.422 0.566-0.411 0.133-1.221-0.635-1.313-0.739-0.652-0.739 0.31 0 0.788 0.273 1.063 0.606m83.014 0.483c2.993 0.504 3.378 0.641 3.094 1.1-0.127 0.205-0.417 0.258-0.645 0.117s-0.761-0.293-1.184-0.339c-0.422-0.045-1.462-0.268-2.31-0.497-0.848-0.228-1.861-0.313-2.252-0.189s-0.711 0.078-0.711-0.103c0-0.548 0.462-0.831 1.067-0.654 0.315 0.092 1.638 0.346 2.941 0.565m10.2-0.389c0 0.395 2.138 0.926 2.455 0.61 0.119-0.119-0.057-0.217-0.391-0.217s-0.607-0.164-0.607-0.364c0-0.201-0.328-0.365-0.728-0.365-0.401 0-0.729 0.151-0.729 0.336m-2.004 1.071c0.438 0.439 5.224 1.007 4.815 0.572-0.158-0.167-0.947-0.338-1.756-0.379-0.808-0.042-1.909-0.184-2.446-0.317-0.653-0.161-0.856-0.12-0.613 0.124m-7.468 2.969c0 0.228-0.59 0.278-1.548 0.132-2.122-0.325-2.175-0.5-0.152-0.5 0.935 0 1.7 0.166 1.7 0.368m-23.679 2.525c0 0.188 0.164 0.444 0.364 0.568 0.2 0.123 0.362 0.584 0.359 1.023-4e-3 0.604-0.084 0.674-0.328 0.29-0.177-0.28-0.584-0.408-0.905-0.285s-0.583 0.055-0.583-0.151-0.182-0.262-0.403-0.125c-0.289 0.179-0.28 0.326 0.033 0.519 0.336 0.208 0.324 0.451-0.049 1.048-0.605 0.97-1.038 0.997-1.038 0.065 0-0.536-0.338-0.773-1.366-0.958-0.752-0.136-1.552-0.392-1.778-0.571-0.554-0.438-2.422 0.296-2.231 0.877 0.299 0.914 2.93 1.483 3.466 0.75 0.445-0.609 0.489-0.598 0.693 0.183 0.327 1.251 2.732 1.016 3.04-0.297 0.197-0.845 0.233-0.859 0.49-0.19 0.164 0.427 0.12 0.775-0.108 0.85-0.583 0.195-0.461 0.797 0.162 0.797 0.3 0 0.505-0.205 0.455-0.456-0.05-0.25 0.114-0.439 0.364-0.419 1.405 0.113 1.57 0.18 1.342 0.549-0.167 0.272 4e-3 0.323 0.525 0.158 0.46-0.146 0.774-0.088 0.774 0.143 0 0.507 1.357 0.507 1.526 1e-3 0.074-0.222 0.501-0.066 0.997 0.364 0.514 0.446 1.328 0.735 1.996 0.709l1.128-0.043-1.093-0.232c-0.765-0.163-1.128-0.478-1.209-1.05-0.064-0.449-0.279-0.817-0.477-0.817s-0.243 0.19-0.1 0.421c0.176 0.285 0.022 0.36-0.473 0.23-0.404-0.105-0.984-0.052-1.289 0.119-0.41 0.229-0.688 0.049-1.059-0.685-1.392-2.759-3.225-4.683-3.225-3.385m33.512 2.029c-0.375 0.451-0.321 0.542 0.323 0.542 0.425 0 0.773-0.154 0.773-0.343 0-0.631-0.641-0.748-1.096-0.199m-39.873 0.202c0.334 0.54 0.02 0.765-0.689 0.493-0.328-0.126-0.506-0.376-0.395-0.555 0.273-0.441 0.792-0.412 1.084 0.062m18.014 1.975c0.712 0.857 0.209 1.578-0.969 1.388-0.801-0.129-0.909-0.079-0.484 0.222 0.674 0.477 2.307 0.525 2.019 0.059-0.352-0.571 0.441-0.792 0.964-0.269 1.088 1.089 2.482 0.741 2.482-0.619 0-0.759-0.69-1.121-0.932-0.489-0.245 0.638-1.959 0.381-2.234-0.336-0.105-0.274-0.44-0.498-0.743-0.498-0.447 0-0.467 0.103-0.103 0.542m44.828 0.096c0.067 1.201 2.973 4.51 3.498 3.985 0.277-0.277-0.206-1.024-1.782-2.757-1.344-1.479-1.746-1.766-1.716-1.228m-32.195 0.334c-0.419 0.419-0.265 0.85 0.304 0.85 0.3 0 0.546 0.245 0.546 0.546s-0.164 0.546-0.364 0.546-0.364 0.139-0.364 0.309 0.533 0.317 1.184 0.328c0.96 0.014 1.046-0.039 0.455-0.284-0.401-0.166-0.529-0.313-0.285-0.327 0.502-0.029 0.221-1.038-0.488-1.756-0.515-0.521-0.65-0.55-0.988-0.212m15.422 0.121c0 0.188-0.275 0.236-0.612 0.107-0.563-0.217-0.566-0.17-0.04 0.581 0.314 0.449 0.494 1.115 0.398 1.48-0.095 0.365 0.013 0.779 0.24 0.92 0.305 0.188 0.295 0.398-0.036 0.797-0.358 0.432-0.351 0.603 0.036 0.842 0.399 0.246 0.394 0.329-0.024 0.466-0.279 0.092-0.202 0.119 0.171 0.06 0.374-0.059 0.948 0.036 1.275 0.211 0.572 0.305 1.991 0.806 4.166 1.47 1.086 0.332 1.137-0.762 0.076-1.65-0.24-0.201-0.821-0.927-1.292-1.613-0.47-0.686-0.919-1.055-0.997-0.82-0.352 1.057-1.4 0.382-1.815-1.168-0.368-1.377-1.546-2.659-1.546-1.683m-48.1 2.89c0.463 0.865 0.495 2.21 0.052 2.21-0.178 0-0.423-0.394-0.545-0.877-0.121-0.482-0.32-1.138-0.442-1.457-0.318-0.827 0.483-0.721 0.935 0.124m40.814 0.389c0.301 0.194 0.957 0.339 1.458 0.322l0.91-0.031-0.91-0.291c-1.405-0.45-2.154-0.45-1.458 0m-59.955 0.727c2.984 0.473 4.525 1.15 2.032 0.892-3.724-0.385-6.55-0.973-6.337-1.318 0.123-0.198 0.574-0.274 1.003-0.167 0.429 0.106 1.915 0.372 3.302 0.593m34.369-0.134c1.403 0.252 3.158 1.34 3.294 2.042 0.167 0.872-2.861 0.62-3.38-0.281-0.206-0.358-0.662-0.952-1.013-1.321-0.7-0.735-0.849-1.207-0.267-0.847 0.204 0.125 0.819 0.309 1.366 0.407m36.184 0.278c-0.352 0.423-0.29 0.571 0.317 0.764 0.415 0.131 0.659 0.391 0.545 0.577-0.115 0.186-8e-3 0.338 0.237 0.338 0.246 0 0.337 0.11 0.202 0.244-0.327 0.327-2.063-1.33-2.063-1.969 0-0.277 0.164-0.403 0.365-0.279 0.2 0.124 0.364 0.024 0.364-0.221 0-0.246 0.105-0.341 0.234-0.213 0.129 0.129 0.038 0.47-0.201 0.759m-181.18 4.115c-0.349 0.091-1.004 0.094-1.458 7e-3 -0.453-0.087-0.168-0.162 0.634-0.166 0.801-4e-3 1.172 0.068 0.824 0.159m2.546 1e-3c-0.351 0.091-0.925 0.091-1.276 0-0.35-0.092-0.063-0.167 0.638-0.167s0.988 0.075 0.638 0.167m9.649 1.062c2.858 0.321 5.338 0.717 5.511 0.88 0.174 0.162 1.157 0.21 2.186 0.106 1.32-0.134 2.513 0.024 4.056 0.539 1.202 0.401 3.559 1.081 5.237 1.51 5.875 1.503 10.214 5.07 8.828 7.257-0.306 0.484-1.583 0.335-4.283-0.5-0.749-0.232-0.778-0.147-0.674 1.976l0.109 2.219-1.33 0.042c-0.731 0.024-1.05 0.116-0.709 0.206 0.78 0.205 1.222 1.516 0.691 2.047-0.291 0.292-0.402 0.257-0.406-0.127-0.01-0.888-0.597-1.525-1.502-1.63-0.473-0.056-1.025-0.143-1.225-0.195-0.534-0.138-1.749 0.438-2.304 1.092-0.265 0.313-0.379 0.364-0.252 0.113 0.127-0.25 0.057-0.455-0.155-0.455s-0.386-0.328-0.386-0.729c0-0.4-0.162-0.728-0.362-0.728-0.389 0-0.306 1.274 0.11 1.69 0.445 0.446 0.27 1.103-0.294 1.103-0.331 0-0.546-0.338-0.546-0.857 0-0.73-0.145-0.831-0.972-0.681-0.647 0.117-1.129-0.032-1.445-0.449-0.635-0.836-0.617-1.193 0.049-0.938 0.3 0.115 0.546 0.039 0.546-0.169 0-0.615-1.959-0.665-2.447-0.063-0.31 0.38-0.448 0.408-0.456 0.091-6e-3 -0.251-0.359-0.456-0.785-0.456-0.646 0-0.698 0.09-0.319 0.547 0.249 0.3 0.673 0.546 0.942 0.546s0.686 0.367 0.926 0.816c0.24 0.448 1.233 1.842 2.206 3.096 1.877 2.418 1.689 3.067-0.323 1.117-0.915-0.887-1.201-1.017-1.201-0.547 0 0.801-0.669 0.647-1.662-0.384-0.434-0.45-0.958-0.819-1.164-0.819s-0.492-0.287-0.635-0.638c-0.239-0.585-0.285-0.577-0.56 0.091-0.26 0.634-0.303 0.595-0.325-0.297-0.021-0.841-0.152-0.987-0.724-0.805-0.384 0.122-0.803 0.051-0.932-0.158-0.129-0.208-1.359-0.379-2.733-0.379-2.969 0-4.363-0.366-2.923-0.767 0.865-0.24 0.869-0.255 0.091-0.29-0.959-0.042-1.119-0.747-0.182-0.802 0.351-0.021 0.023-0.201-0.728-0.401-0.973-0.258-1.367-0.562-1.367-1.055 0-0.381-0.173-0.692-0.385-0.692s-0.285-0.164-0.161-0.365c0.124-0.2 0.553-0.364 0.954-0.364s0.634-0.153 0.518-0.341c-0.712-1.151 4.714-0.831 6.412 0.378 1.721 1.226 1.627 0.532-0.193-1.413-0.92-0.984-1.608-1.855-1.528-1.937 0.08-0.081-1.602-0.198-3.738-0.26-4.364-0.126-5.157-0.274-5.157-0.963 0-0.264-0.424-0.758-0.943-1.098-1.188-0.779-1.083-0.869 1.334-1.136 3.114-0.344 2.481-1.973-0.766-1.973-2.242 0-4.037-0.369-3.785-0.777 0.111-0.179-0.343-0.445-1.007-0.592-3.624-0.803 6.606-0.982 13.268-0.232m175.87-0.221c0.485 0.314 0.485 0.354 0 0.354-0.301 0-0.793-0.159-1.093-0.354-0.486-0.313-0.486-0.353 0-0.353 0.3 0 0.792 0.159 1.093 0.353m-197.45 0.277c0 0.152-0.328 0.482-0.729 0.732-0.731 0.456-1.11-0.141-0.486-0.766 0.332-0.332 1.215-0.307 1.215 0.034m161.32 1.529c0.125 0.376-0.119 0.434-1.043 0.25-1.398-0.28-1.595-0.418-1.294-0.906 0.296-0.479 2.13 0.036 2.337 0.656m41.066-0.343c3.026 1.041 3.696 2.18 1.283 2.18-1.128 0-1.483-0.159-1.672-0.753-0.131-0.415-0.757-1.07-1.39-1.456-1.479-0.902-0.9-0.893 1.779 0.029m-198.91 0.019c0.335 0.542-0.054 0.837-0.751 0.57-0.322-0.124-0.484-0.39-0.359-0.592 0.295-0.478 0.807-0.468 1.11 0.022m19.115 0.241c6e-3 0.391 4.38 2.758 4.631 2.506 0.112-0.112-0.106-0.319-0.485-0.459-0.38-0.141-0.772-0.368-0.872-0.506-0.32-0.441-3.279-1.833-3.274-1.541m149.36 0.798c1.703 0.209 4.818 0.639 6.921 0.954 2.104 0.316 4.317 0.631 4.918 0.7 5.553 0.637 8.113 0.975 8.653 1.142 1.046 0.324 0.722-0.54-0.476-1.268-2.475-1.505 0.06-1.174 2.706 0.353 1.428 0.825 3.129 1.587 3.78 1.693 0.723 0.118 1.184 0.407 1.184 0.739 0 0.437-0.305 0.497-1.537 0.3-1.495-0.239-2.243-0.788-1.878-1.378 0.099-0.16-0.062-0.291-0.358-0.291s-0.798-0.1-1.115-0.221c-0.419-0.161-0.576 0-0.576 0.593 0 0.859-0.066 0.862-3.643 0.187-2.346-0.442-8.486-1.264-11.111-1.487-1.603-0.137-3.061-0.336-3.239-0.442-0.313-0.187-2.171-0.423-9.092-1.154-3.317-0.35-3.731-0.476-3.391-1.027 0.193-0.311 1.673-0.202 8.254 0.607m-177.04 0.567c-0.254 0.306-0.63 0.555-0.837 0.555s-0.079-0.328 0.285-0.73c0.754-0.833 1.256-0.673 0.552 0.175m21.642-0.579c0.11 0.177 0.689 0.394 1.288 0.482 0.872 0.128 1.009 0.063 0.689-0.323-0.44-0.529-2.298-0.679-1.977-0.159m192.54 0.746c0.447 0.836 0.513 2.15 0.082 1.645-0.162-0.19-0.486-0.797-0.72-1.348-0.484-1.138 0.054-1.388 0.638-0.297m-177.7 0.844c0.156 1.615 1.686 1.986 1.575 0.382-0.107-1.532-0.127-1.566-0.937-1.566-0.629 0-0.733 0.194-0.638 1.184m-122.44 0.058c-0.292 0.352-0.306 0.589-0.045 0.751 0.509 0.314 1.111-0.087 1.111-0.74 0-0.668-0.516-0.674-1.066-0.011m98.649 0.78c0.115 0.594 0.054 0.621-0.455 0.199-0.697-0.578-0.783-1.254-0.134-1.037 0.251 0.083 0.516 0.46 0.589 0.838m18.264 0.949c0 0.554 4.779 5.013 5.391 5.03 0.732 0.021 0.14-0.732-2.523-3.207-2.479-2.304-2.868-2.551-2.868-1.823m9.382 3.677c-0.158 2.039-0.09 2.353 0.659 3.006 0.46 0.4 0.924 1.056 1.031 1.457s0.141 0.274 0.075-0.282c-0.105-0.885-0.024-0.98 0.65-0.765 1.14 0.363 1.489 0.357 1.6-0.026 0.056-0.19-0.354-0.405-0.91-0.478-1.49-0.196-1.672-0.559-1.257-2.506 0.408-1.911 0.111-2.683-1.031-2.683-0.523 0-0.672 0.415-0.817 2.277m184.72 0.182c-0.106 0.925-1.745 1.797-1.759 0.937-3e-3 -0.165-0.104-0.668-0.225-1.119-0.194-0.724-0.085-0.819 0.94-0.819 1.05 0 1.149 0.094 1.044 1.001m-209.04 0.099c0.216 0.405 0.281 0.919 0.143 1.142-0.158 0.256-0.422 0.086-0.714-0.458-0.409-0.766-0.396-1.42 0.029-1.42 0.081 0 0.325 0.331 0.542 0.736m27.345-0.1c0.568 0.91 2.982 1.037 2.813 0.148-0.081-0.426-0.571-0.635-1.676-0.715-1.444-0.104-1.53-0.062-1.137 0.567m186.86 0.414c0 0.316-1.88 0.829-2.131 0.581-0.07-0.069-0.019-0.3 0.113-0.514 0.288-0.467 2.018-0.524 2.018-0.067m6.088 1.361c0.085 0.257-0.207 0.343-0.791 0.231-0.509-0.097-0.925-0.333-0.925-0.524 0-0.477 1.55-0.212 1.716 0.293m-202.08 0.503c0 0.201 0.318 0.365 0.707 0.365s0.808-0.164 0.932-0.365c0.128-0.206-0.178-0.364-0.707-0.364-0.513 0-0.932 0.164-0.932 0.364m18.824 2.693c0.201 2.732-0.053 3.026-2.255 2.612-1.148-0.215-1.236-0.313-0.879-0.98 0.372-0.695-0.307-1.72-1.167-1.763-0.127-6e-3 -0.306-0.403-0.397-0.881-0.166-0.867 2.422-1.714 3.398-1.111 0.179 0.111 0.326-0.086 0.326-0.439 0-1.733 0.815 0.411 0.974 2.562m201.21-1.818c0 0.081 0.533 0.325 1.184 0.542 1.083 0.361 1.124 0.349 0.477-0.147-0.652-0.499-1.661-0.739-1.661-0.395m-224.58 1.32c0.509 0.563 0.736 0.627 0.961 0.273 0.496-0.782 0.347-1.01-0.661-1.01-0.948 0-0.954 0.014-0.3 0.737m213.47 0.357c0.253 0.41-0.207 0.471-1.064 0.142-0.317-0.122-0.576-0.456-0.576-0.742 0-0.562 1.191-0.126 1.64 0.6m-211.11-0.184c0 0.301 0.31 0.547 0.689 0.547 0.38 0 0.784 0.246 0.9 0.546 0.115 0.301 0.051 0.547-0.143 0.547s-0.353 0.246-0.353 0.546c0 0.301 0.246 0.547 0.546 0.547 0.301 0 0.547 0.146 0.547 0.325 0 0.677 0.945 0.669 0.996-9e-3 0.029-0.383-0.086-0.611-0.254-0.507-0.169 0.104-0.468-0.271-0.664-0.834-0.604-1.732-2.264-2.984-2.264-1.708m11.475 2.125c0 0.535-0.164 0.972-0.364 0.972s-0.364-0.492-0.364-1.093 0.164-1.038 0.364-0.972c0.2 0.067 0.364 0.559 0.364 1.093m213.73-0.809c0.091 0.278 1.456 1.479 3.033 2.668 2.603 1.961 3.291 3.107 1.197 1.991-0.747-0.398-0.788-0.384-0.367 0.126 0.311 0.377 1.042 0.564 2.146 0.547 1.297-0.019 1.552-0.114 1.135-0.422-0.558-0.411-1.386-1.042-4.482-3.413-2.482-1.901-2.864-2.116-2.662-1.497m6.722 1.337c0.572 0.558 1.319 1.542 1.66 2.186 0.895 1.69 1.431 1.443 0.732-0.336-0.35-0.892-1.045-1.785-1.701-2.185-1.599-0.975-1.891-0.833-0.691 0.335m-233.96 2.122c0.973 0.373 0.641 0.79-0.58 0.728-0.636-0.032-1.224-0.258-1.306-0.503-0.157-0.473 0.909-0.6 1.886-0.225m13.04 0.875c-0.088 0.603 0.03 1.326 0.263 1.607 0.251 0.302 0.285 0.597 0.083 0.721-0.599 0.371-1.182-0.758-1.091-2.112 0.048-0.722 0.272-1.312 0.497-1.312 0.247 0 0.345 0.433 0.248 1.096m205.4-0.541c0.75 0.905 0.042 1.114-0.827 0.244-0.643-0.642-0.685-0.799-0.217-0.799 0.321 0 0.79 0.25 1.044 0.555m-82.915 1.123c0.801 0.308 0.721 0.872-0.123 0.872-0.952 0-1.851-0.373-1.851-0.767 0-0.373 1.121-0.432 1.974-0.105m9.226 0.876c2.053 0.221 4.02 0.454 4.372 0.518 0.351 0.064 1.787 0.236 3.189 0.382 1.403 0.146 3.042 0.331 3.643 0.41 0.601 0.08 3.142 0.392 5.647 0.693 6.53 0.787 7.286 0.927 7.286 1.351 0 0.235-0.59 0.304-1.549 0.18-2.263-0.292-23.363-2.715-26.138-3.001-1.302-0.135-2.445-0.319-2.54-0.411-0.326-0.316 0.898-0.824 1.626-0.674 0.403 0.082 2.411 0.331 4.464 0.552m92.443-4e-3c-0.128 0.207 0.178 0.364 0.707 0.364 0.513 0 0.932-0.164 0.932-0.364s-0.318-0.364-0.707-0.364-0.808 0.164-0.932 0.364m6.093 2.98c0.204 0.61 1.29 1.234 1.604 0.92 0.145-0.146-0.052-0.503-0.438-0.796-0.857-0.648-1.358-0.701-1.166-0.124m-235.21 2.386c0.566 1.156 1.415 2.635 1.887 3.286 0.593 0.817 0.706 1.184 0.365 1.184-0.487 0-3.186-4.462-3.719-6.147-0.482-1.524 0.387-0.531 1.467 1.677m166.28-1.541c0.392 0.472 0.228 0.547-1.209 0.547-0.914 0-1.759-0.157-1.878-0.349-0.118-0.191-0.456-0.256-0.75-0.143s-0.534 0.024-0.534-0.198c0-0.638 3.827-0.512 4.371 0.143m70.152 0.871c-0.326 0.528 1.122 1.888 1.752 1.646 0.285-0.109 0.626-0.023 0.758 0.191 0.133 0.214 0.528 0.389 0.879 0.389s0.957 0.287 1.345 0.637c0.933 0.843 1.981 1.002 1.981 0.301 0-0.361 0.206-0.472 0.596-0.322 0.408 0.156 0.543 0.068 0.427-0.28-0.093-0.28-1.423-0.857-2.954-1.282-1.532-0.426-2.698-0.633-2.591-0.461 0.423 0.684-0.936 0.265-1.43-0.441-0.316-0.452-0.623-0.604-0.763-0.378m-0.784 1.365c0.11 0.288-0.055 0.622-0.368 0.742-0.661 0.254-1.798-0.731-1.465-1.269 0.304-0.493 1.582-0.126 1.833 0.527m-157.84 1.521c2.557 1.019 3.236 4.142 1.318 6.061-3.113 3.112-10.11 1.182-10.11-2.788 0-3.574 4.154-5.12 8.792-3.273m-82.859 1.589c0.464 0.436 0.843 1.038 0.843 1.339 0 0.422-0.186 0.373-0.819-0.215-0.452-0.419-1.595-0.875-2.547-1.015-2.062-0.303-1.945-0.901 0.177-0.901 1.042 0 1.762 0.243 2.346 0.792m107.75 8.738c0.51 0.233 0.928 0.647 0.928 0.92 0 0.408-0.193 0.398-1.07-0.056-1.932-0.999-1.809-1.752 0.142-0.864m-78.763 6.355c0.368 0.111 0.638 0.55 0.638 1.035 0 0.898-2.198 0.781-4.246-0.227-0.432-0.212-0.953-0.282-1.159-0.154-0.205 0.127-0.47 0.075-0.587-0.115-0.316-0.511 4.009-0.947 5.354-0.539m136.26 4.537c1.785 0.496 1.389 1.13-0.552 0.886-1.695-0.213-1.907-0.332-1.567-0.883 0.296-0.478 0.407-0.478 2.119-3e-3m-88.328 3.87 3.759 0.23 5.848 7.188c6.561 8.064 5.905 7.623 11.321 7.63 3.016 4e-3 2.844 0.082 7.928-3.576 0.569-0.41 0.885-0.382 2.062 0.182 2.251 1.078 4.998 0.837 6.446-0.566 1.437-1.393 1.711-1.401 12.783-0.413 8.916 0.796 8.845 0.772 11.669 3.973 3.571 4.045 3.331 3.909 7.391 4.189l3.667 0.252 2.503-1.604c2.491-1.597 2.515-1.604 5.218-1.434 2.561 0.16 2.765 0.116 3.598-0.779 1.485-1.595 3.306-0.804 3.306 1.436 0 1.456 0.909 6.364 1.847 9.979 1.029 3.963 1.252 3.699-3.03 3.584-5.495-0.148-29.219 1.255-33.425 1.976-3.815 0.655-7.481 1.93-9.613 3.345-2.233 1.482-2.47 1.534-3.613 0.785-0.988-0.648-6.181-1.912-9.633-2.346-1.43-0.179-6.342-0.179-11.338 0l-8.814 0.317-1.536-1.552c-2.796-2.824-9.161-8.573-10.803-9.758l-1.616-1.167 0.79-0.639c0.486-0.393 1.777-0.739 3.347-0.897 3.223-0.324 3.291-0.106-1.453-4.689l-4.008-3.872h-3.212c-4.13 0-6.137-0.621-9.799-3.03-5.854-3.852-7.715-6.049-5.143-6.072 0.332-3e-3 1.644-0.498 2.914-1.099 2.013-0.952 2.731-1.095 5.588-1.116 1.804-0.013 4.591-0.242 6.193-0.509 1.603-0.266 3.406-0.415 4.007-0.331s2.784 0.256 4.851 0.383m20.399 1.568c0.262 3e-3 0.389 0.147 0.282 0.321-0.248 0.4-1.968 0.085-2.278-0.417-0.151-0.243 0.079-0.294 0.642-0.143 0.483 0.129 1.092 0.236 1.354 0.239m-68.419 3.466c0 0.382-0.384 0.546-1.275 0.546-0.89 0-1.275-0.164-1.275-0.546s0.385-0.546 1.275-0.546c0.891 0 1.275 0.164 1.275 0.546"
         fill="#fff"
         fill-rule="evenodd"
         stroke="#000"
         id="path2"
         style="fill-opacity:1;fill:#000000;stroke:#f1a541;stroke-opacity:1" />
    </g>
  </g>
</svg>
